<svg width="32" height="30" viewBox="0 0 32 30" fill="none" xmlns="http://www.w3.org/2000/svg">
<path d="M12.0414 19.9557V23.8015C12.0414 23.9319 12.0932 24.057 12.1854 24.1492C12.2776 24.2414 12.4027 24.2932 12.5331 24.2932H18.0862C18.2166 24.2932 18.3416 24.2414 18.4338 24.1492C18.526 24.057 18.5778 23.9319 18.5778 23.8015V19.9557C18.5778 19.8253 18.526 19.7003 18.4338 19.6081C18.3416 19.5159 18.2166 19.4641 18.0862 19.4641H12.5331C12.4027 19.4641 12.2776 19.5159 12.1854 19.6081C12.0932 19.7003 12.0414 19.8253 12.0414 19.9557ZM13.0247 20.4473H17.5946V23.3099H13.0247V20.4473Z" fill="#ED514E" stroke="#ED514E" stroke-width="0.23937"/>
<path d="M10.6643 18.284C10.7333 18.3947 10.8434 18.4733 10.9705 18.5028L10.9975 18.3862L10.9705 18.5028C11.0975 18.5322 11.231 18.51 11.3416 18.441L11.3416 18.4409L16.053 15.5015L16.053 15.5015C16.1636 15.4324 16.2423 15.3223 16.2717 15.1953C16.3011 15.0683 16.2789 14.9348 16.2099 14.8242L16.1083 14.8875L16.2099 14.8242L14.1742 11.5613C14.1052 11.4507 13.995 11.372 13.868 11.3426C13.741 11.3132 13.6075 11.3354 13.4969 11.4044L13.4969 11.4044L8.78584 14.3438C8.78582 14.3438 8.78577 14.3439 8.78576 14.3439C8.73097 14.378 8.68348 14.4226 8.64592 14.4751C8.60835 14.5276 8.5815 14.587 8.56689 14.6499C8.55228 14.7128 8.55021 14.7779 8.56078 14.8416C8.57136 14.9053 8.59437 14.9663 8.62852 15.0211L8.62856 15.0212L10.6643 18.284ZM10.6643 18.284L10.7659 18.2207L10.6643 18.2841L10.6643 18.284ZM9.72303 14.9178L13.6002 12.4988L15.1154 14.9275L11.2383 17.3465L9.72303 14.9178Z" fill="#ED514E" stroke="#ED514E" stroke-width="0.23937"/>
<path d="M2.34568 8.78443C2.2153 8.78443 2.09026 8.83622 1.99806 8.92842C1.90586 9.02061 1.85407 9.14566 1.85407 9.27604V9.40002C1.85407 9.5304 1.90586 9.65545 1.99806 9.74764C2.09026 9.83984 2.2153 9.89163 2.34568 9.89163C2.47607 9.89163 2.60111 9.83984 2.69331 9.74764C2.7855 9.65545 2.8373 9.5304 2.8373 9.40002V9.27604C2.8373 9.14566 2.7855 9.02061 2.69331 8.92842C2.60111 8.83622 2.47607 8.78443 2.34568 8.78443Z" fill="#ED514E" stroke="#ED514E" stroke-width="0.23937"/>
<path d="M2.34568 10.5202C2.2153 10.5202 2.09026 10.572 1.99806 10.6642C1.90586 10.7564 1.85407 10.8814 1.85407 11.0118V16.7147C1.85407 16.8451 1.90586 16.9702 1.99806 17.0624C2.09026 17.1546 2.2153 17.2064 2.34568 17.2064C2.47607 17.2064 2.60111 17.1546 2.69331 17.0624C2.7855 16.9702 2.8373 16.8451 2.8373 16.7147V11.0118C2.8373 10.8814 2.7855 10.7564 2.69331 10.6642C2.60111 10.572 2.47607 10.5202 2.34568 10.5202Z" fill="#ED514E" stroke="#ED514E" stroke-width="0.23937"/>
<path d="M12.5505 3.85701C12.5505 3.85824 12.5505 3.85946 12.5505 3.86069V6.02676H19.2909V3.86069C19.2909 3.85946 19.2909 3.85824 19.2909 3.85701C19.2835 3.86106 19.2759 3.86493 19.2682 3.8686C19.202 3.90029 19.1295 3.91674 19.0561 3.91671L12.5505 3.85701ZM12.5505 3.85701C12.558 3.86106 12.5655 3.86493 12.5732 3.86859C12.6394 3.90029 12.7119 3.91674 12.7853 3.91671C12.7853 3.91671 12.7854 3.91671 12.7854 3.91671H19.0561L12.5505 3.85701ZM28.4443 6.02676H28.4442H22.0359V3.86069V3.86052C22.0349 3.13823 21.7714 2.44092 21.2945 1.89847C20.8384 1.37973 20.2169 1.03642 19.5371 0.925657C19.5176 0.833189 19.4716 0.747551 19.4037 0.679701C19.3115 0.587505 19.1865 0.53571 19.0561 0.53571H12.7854C12.655 0.53571 12.53 0.587505 12.4378 0.679701C12.3699 0.747551 12.3239 0.833192 12.3044 0.925659C11.6246 1.03643 11.0031 1.37973 10.547 1.89847C10.0701 2.44092 9.80657 3.13823 9.80556 3.86052V3.86069V6.02676H3.39732H3.39719C2.56067 6.02769 1.75868 6.36041 1.16718 6.95192C0.575668 7.54343 0.242947 8.34542 0.242009 9.18193V9.18207L0.242009 25.8953L0.242009 25.8955C0.242964 26.732 0.57569 27.534 1.16719 28.1255C1.7587 28.717 2.56067 29.0497 3.39718 29.0507H3.39732H28.4442H28.4443C29.2808 29.0497 30.0828 28.717 30.6743 28.1255C31.2658 27.534 31.5985 26.732 31.5995 25.8955V25.8953V9.18207V9.18193C31.5985 8.34542 31.2658 7.54343 30.6743 6.95192C30.0828 6.36041 29.2808 6.02769 28.4443 6.02676ZM21.0527 3.86086V6.02676H20.2742L20.2742 3.86069L20.2742 3.86047C20.2738 3.61046 20.1961 3.36668 20.0518 3.16249C19.9241 2.98165 19.7496 2.83968 19.5477 2.75128V1.93066C19.9524 2.03303 20.316 2.26024 20.586 2.58179C20.8868 2.94018 21.052 3.39295 21.0527 3.86086ZM11.5673 3.86047V3.86069V6.02676H10.7888L10.7887 3.86086C10.7894 3.39295 10.9546 2.94018 11.2555 2.58179C11.5254 2.26024 11.889 2.03303 12.2937 1.93066V2.75128C12.0919 2.8397 11.9174 2.98167 11.7896 3.16251C11.6454 3.3667 11.5677 3.61047 11.5673 3.86047ZM13.277 1.51894H18.5645V2.93348H13.277V1.51894ZM3.77534 28.0676H3.3974C2.82148 28.0669 2.26934 27.8378 1.86213 27.4305C1.45491 27.0233 1.22586 26.4711 1.22524 25.8952V9.1822C1.22589 8.6063 1.45496 8.05416 1.86219 7.64693C2.26942 7.23971 2.82155 7.01064 3.39746 7.00998H3.77534V28.0676ZM24.4191 28.0676H7.42233V13.3955C7.42233 13.2651 7.37053 13.14 7.27834 13.0478C7.18614 12.9557 7.0611 12.9039 6.93071 12.9039C6.80033 12.9039 6.67529 12.9557 6.58309 13.0478C6.49089 13.14 6.4391 13.2651 6.4391 13.3955V28.0676H4.75857V7.00998H6.43904V10.2961C6.43904 10.4264 6.49083 10.5515 6.58303 10.6437C6.67522 10.7359 6.80027 10.7877 6.93065 10.7877C7.06104 10.7877 7.18608 10.7359 7.27828 10.6437C7.37047 10.5515 7.42227 10.4264 7.42227 10.2961V7.00998H24.4192L24.4191 28.0676ZM27.0828 28.0676H25.4024V7.00998H27.0829L27.0828 28.0676ZM30.6163 25.8952C30.6156 26.4711 30.3865 27.0233 29.9793 27.4305C29.5721 27.8377 29.0199 28.0668 28.444 28.0674H28.0662V7.00998H28.4441C29.02 7.01065 29.5721 7.23973 29.9793 7.64696C30.3865 8.05418 30.6156 8.60631 30.6163 9.1822V25.8952Z" fill="#ED514E" stroke="#ED514E" stroke-width="0.23937"/>
</svg>
