<svg width="38" height="38" viewBox="0 0 38 38" fill="none" xmlns="http://www.w3.org/2000/svg">
<path d="M2.10052 30.3075L2.54331 27.6165C2.7647 26.2673 3.69905 25.1392 4.98237 24.6707C5.47769 24.4908 5.96175 24.3409 6.37076 24.2247L9.10252 29.0894C9.18882 29.2468 9.33892 29.3593 9.51153 29.4042C9.56781 29.4192 9.6241 29.4267 9.68039 29.4267C9.80046 29.4267 9.91679 29.393 10.0219 29.333L13.1251 27.4741L16.2283 29.333C16.3334 29.3967 16.4497 29.4267 16.5698 29.4267C16.6261 29.4267 16.6824 29.4192 16.7387 29.4042C16.9113 29.3593 17.0576 29.2431 17.1477 29.0894L19.8231 24.3259C20.1459 24.4308 20.5023 24.5583 20.8776 24.6969C20.9676 26.1848 21.4442 27.6203 22.266 28.8608L21.5455 29.5804C20.795 29.5279 20.0595 29.7978 19.5192 30.3375L17.3578 32.4962L13.3277 33.7555C13.2977 33.7668 13.2639 33.7668 13.2302 33.7555L2.21685 30.4949C2.13429 30.4724 2.08551 30.3899 2.10052 30.3075ZM8.27699 23.7225L11.9393 26.6458L9.92805 27.8526L7.71037 23.9061C7.9055 23.8612 8.09687 23.8012 8.27699 23.7262V23.7225ZM13.0688 21.3351C13.9056 21.3351 14.7086 21.1889 15.4553 20.9153C15.5492 21.7886 15.9732 22.5681 16.5998 23.1228L13.1251 25.8962L9.42522 22.9429C9.97683 22.377 10.3296 21.6274 10.3933 20.7992C11.2189 21.144 12.1232 21.3351 13.0726 21.3351H13.0688ZM14.8249 15.5859C14.8249 15.9307 14.5435 16.208 14.202 16.208C13.8606 16.208 13.5791 15.9269 13.5791 15.5859C13.5791 15.2448 13.8606 14.9637 14.202 14.9637C14.5435 14.9637 14.8249 15.2448 14.8249 15.5859ZM7.42144 14.3716V13.281C7.49648 13.0936 7.54151 12.8912 7.54151 12.6775V11.9355C7.93552 11.7743 9.52654 11.036 10.2808 9.45064C11.3465 9.88164 13.429 10.6387 14.7461 10.5975C14.93 10.59 15.0989 10.5113 15.2227 10.3726C15.3428 10.2377 15.4028 10.054 15.384 9.87415C15.354 9.56308 15.3428 9.22952 15.3503 8.93718C16.2021 9.51435 17.5117 10.3014 18.6074 10.5375V10.6762C18.6074 10.6762 18.6074 10.7062 18.6074 10.7212C18.5924 10.8074 18.5849 10.8936 18.5849 10.9798V12.6775C18.5849 13.236 18.8738 13.7269 19.3091 14.0118C19.1402 14.514 18.6674 14.8738 18.1083 14.8738H16.0145C15.7293 14.1505 15.0238 13.637 14.202 13.637C13.1288 13.637 12.2545 14.5103 12.2545 15.5821C12.2545 16.654 13.1288 17.5273 14.202 17.5273C15.0613 17.5273 15.7931 16.9688 16.052 16.193H18.112C18.2171 16.193 18.3184 16.1855 18.4197 16.1743C17.6618 18.423 15.5341 20.0084 13.0688 20.0084C9.95431 20.0084 7.42144 17.4786 7.42144 14.3678V14.3716ZM5.36512 12.9474C4.92984 12.9474 4.57711 12.5951 4.57711 12.1603V11.5045C4.57711 11.0697 4.92984 10.7174 5.36512 10.7174H5.94674C6.09684 10.7174 6.21691 10.8373 6.21691 10.9873V12.685C6.21691 12.835 6.09684 12.9549 5.94674 12.9549H5.36512V12.9474ZM12.0294 2.19104H14.0707C17.7293 2.19104 20.705 5.16309 20.705 8.81725V9.39067H20.1796C20.0933 9.39067 20.0108 9.39817 19.9282 9.40941V8.81725C19.9282 5.59034 17.3015 2.96684 14.0707 2.96684H12.0294C8.79857 2.96684 6.17188 5.59034 6.17188 8.81725V9.40567C6.09684 9.39442 6.02554 9.39067 5.94674 9.39067H5.39514V8.81725C5.39514 5.16309 8.3708 2.19104 12.0294 2.19104ZM21.6018 12.1603C21.6018 12.5951 21.2491 12.9474 20.8138 12.9474H20.1796C20.0295 12.9474 19.9095 12.8275 19.9095 12.6775V10.9798C19.9095 10.8299 20.0295 10.7099 20.1796 10.7099H20.8138C21.2491 10.7099 21.6018 11.0622 21.6018 11.497V12.1528V12.1603ZM15.2865 7.26564C15.1401 7.1532 14.9563 7.10448 14.7724 7.13446C14.5923 7.16445 14.4309 7.26939 14.3296 7.4193C14.0594 7.82407 14.0069 8.58489 14.0182 9.21827C12.7273 9.01214 10.8774 8.28131 10.1644 7.96649C9.98808 7.88778 9.78545 7.89153 9.60909 7.97398C9.43273 8.05644 9.30515 8.21385 9.25636 8.40124C8.97118 9.48437 8.06685 10.1515 7.49273 10.4813C7.49273 10.4776 7.49273 10.4701 7.49273 10.4663V8.8135C7.49273 6.31743 9.52654 4.28234 12.0294 4.28234H14.0707C16.5698 4.28234 18.6036 6.31368 18.6036 8.8135V9.16955C17.4554 8.8135 15.8719 7.71538 15.2865 7.26189V7.26564ZM18.506 23.9661L16.3259 27.8489L14.3146 26.6421L17.8456 23.8237C18.0483 23.8874 18.2584 23.9324 18.476 23.9586C18.4873 23.9586 18.4985 23.9586 18.506 23.9624V23.9661ZM1.84161 31.7654L12.8549 35.026C12.9938 35.0673 13.1364 35.086 13.2789 35.086C13.429 35.086 13.5791 35.0635 13.7255 35.0185L15.7555 34.3852C15.369 35.3259 15.5604 36.4502 16.3221 37.2148C16.8287 37.7207 17.4967 37.9756 18.1646 37.9756C18.8325 37.9756 19.5004 37.7207 20.007 37.2148L23.2041 34.0216C23.7594 33.4669 24.0296 32.7136 23.9583 31.949L24.2547 31.653C24.2547 31.653 24.2547 31.6492 24.2622 31.6455L24.6525 31.2557C26.0822 32.2076 27.7257 32.6761 29.3618 32.6761C31.5532 32.6761 33.7408 31.8366 35.3881 30.1913C36.9942 28.5872 37.8797 26.4509 37.8797 24.1797C37.8797 21.9085 36.9942 19.776 35.3881 18.1682C34.3074 17.0888 32.9566 16.3205 31.4819 15.9419C31.1292 15.852 30.7652 16.0656 30.6751 16.4179C30.5851 16.7702 30.7989 17.1338 31.1517 17.2237C32.3937 17.5423 33.5344 18.1906 34.4463 19.1014C35.8046 20.4581 36.5514 22.2608 36.5514 24.176C36.5514 26.0911 35.8046 27.8939 34.4463 29.2506C31.8984 31.7954 27.827 32.0577 24.979 29.8615C24.7163 29.6591 24.341 29.6816 24.1046 29.9177L23.3129 30.7048L22.7763 31.2407C22.6112 31.4056 22.5474 31.6417 22.5999 31.8628C22.705 32.3013 22.5812 32.7548 22.2622 33.0734L19.0652 36.2666C18.5661 36.765 17.7518 36.765 17.2527 36.2666C16.7537 35.7681 16.7537 34.9548 17.2527 34.4564L18.1796 33.5306L20.4498 31.2632C20.7612 30.9521 21.2003 30.8247 21.6318 30.9184C21.8532 30.9671 22.0821 30.8996 22.2434 30.7385L23.5943 29.3893C23.8307 29.1531 23.8532 28.7821 23.6506 28.5198C21.4742 25.6789 21.7481 21.6274 24.2848 19.0939C25.1666 18.2131 26.266 17.5723 27.463 17.2462C27.8158 17.1487 28.0222 16.7852 27.9283 16.4329C27.8308 16.0806 27.4668 15.8745 27.1141 15.9682C25.6957 16.3542 24.3936 17.1113 23.3467 18.1569C21.962 19.5399 21.1027 21.3501 20.9001 23.2877C20.1721 23.0291 19.174 22.6993 18.6224 22.6356C17.5567 22.5082 16.7537 21.6049 16.7537 20.5293V20.2707C18.4348 19.2251 19.643 17.4748 19.9545 15.4097C20.2622 15.0949 20.4948 14.7014 20.6112 14.2629H20.81C21.977 14.2629 22.9226 13.3147 22.9226 12.1528V11.497C22.9226 10.7849 22.5662 10.1552 22.0258 9.77296V8.8135C22.0258 4.43226 18.4573 0.868042 14.0707 0.868042H12.0294C7.63908 0.868042 4.07054 4.43226 4.07054 8.81725V9.83292C3.57147 10.219 3.24876 10.8224 3.24876 11.5007V12.1566C3.24876 13.3222 4.19812 14.2666 5.36136 14.2666H5.94299C5.99177 14.2666 6.0443 14.2666 6.09308 14.2591V14.3678C6.09308 16.729 7.27509 18.8165 9.07625 20.0758C9.07625 20.1021 9.0725 20.1283 9.0725 20.1583V20.5368C9.0725 21.6124 8.26948 22.5157 7.2038 22.6431C7.18128 22.6431 7.15877 22.6506 7.14001 22.6544C7.08747 22.6656 5.86043 22.9392 4.52833 23.4264C2.79847 24.056 1.53391 25.5814 1.23372 27.3991L0.790932 30.0939C0.670854 30.8359 1.12114 31.5518 1.84161 31.7654Z" fill="#ED514E"/>
<path d="M29.3872 19.3567C32.0364 19.3567 34.194 21.5117 34.194 24.1577C34.194 26.8037 32.0364 28.9587 29.3872 28.9587C26.738 28.9587 24.5803 26.8037 24.5803 24.1577C24.5803 21.5117 26.738 19.3567 29.3872 19.3567ZM23.2557 24.1577C23.2557 27.5345 26.0063 30.2817 29.3872 30.2817C32.7681 30.2817 35.5186 27.5345 35.5186 24.1577C35.5186 20.7809 32.7681 18.0337 29.3872 18.0337C26.0063 18.0337 23.2557 20.7809 23.2557 24.1577Z" fill="#ED514E"/>
</svg>
