<svg width="41" height="43" viewBox="0 0 41 43" fill="none" xmlns="http://www.w3.org/2000/svg">
<path d="M20.708 40.2608C18.8156 40.1287 16.9575 39.6865 15.2077 38.9518C14.7379 38.7816 14.2746 38.618 13.8049 38.4609L8.5851 36.7264C7.038 36.1183 5.40321 35.7647 3.74378 35.6791C2.3997 35.6791 1.78638 33.6435 1.78638 31.752C1.78638 29.8604 2.3997 27.8248 3.74378 27.8248C5.40433 27.7462 7.04135 27.3992 8.59163 26.7972L13.8114 25.0627C14.2812 24.9056 14.7444 24.742 15.2142 24.5718C16.9609 23.831 18.8167 23.3822 20.708 23.2431C20.881 23.2431 21.047 23.3121 21.1693 23.4348C21.2917 23.5576 21.3604 23.724 21.3604 23.8976C21.3604 24.0712 21.2917 24.2377 21.1693 24.3605C21.047 24.4832 20.881 24.5522 20.708 24.5522C18.9579 24.6931 17.2418 25.1152 15.6252 25.8023C15.1424 25.9725 14.6661 26.1492 14.1898 26.3063L8.97006 28.0342C7.29871 28.6819 5.53369 29.0532 3.74378 29.1339C3.58067 29.2189 3.09132 30.1287 3.09132 31.752C3.09132 33.3752 3.58067 34.285 3.74378 34.3701C5.53281 34.4356 7.29779 34.8052 8.96354 35.4631L14.1833 37.1911C14.6596 37.3482 15.1359 37.5249 15.6187 37.6951C17.237 38.3851 18.9553 38.8094 20.708 38.9518C20.881 38.9518 21.047 39.0207 21.1693 39.1435C21.2917 39.2662 21.3604 39.4327 21.3604 39.6063C21.3604 39.7799 21.2917 39.9464 21.1693 40.0691C21.047 40.1919 20.881 40.2608 20.708 40.2608Z" fill="#ED514E"/>
<path d="M9.61585 36.988C9.52999 36.9885 9.44486 36.972 9.36537 36.9394C9.28587 36.9068 9.21357 36.8588 9.1526 36.7982C8.598 36.2353 7.65845 34.8346 7.65845 31.7518C7.65845 28.669 8.598 27.2683 9.1526 26.7054C9.27546 26.5821 9.4421 26.5129 9.61585 26.5129C9.78961 26.5129 9.95625 26.5821 10.0791 26.7054C10.202 26.8286 10.271 26.9958 10.271 27.1701C10.271 27.3444 10.202 27.5115 10.0791 27.6348C9.73982 27.9686 8.96339 29.042 8.96339 31.7518C8.96339 34.4615 9.73982 35.5349 10.0791 35.8688C10.1403 35.9296 10.1888 36.002 10.2219 36.0818C10.2551 36.1615 10.2721 36.2471 10.2721 36.3335C10.2721 36.4199 10.2551 36.5054 10.2219 36.5852C10.1888 36.6649 10.1403 36.7373 10.0791 36.7982C10.0181 36.8588 9.94584 36.9068 9.86634 36.9394C9.78685 36.972 9.70172 36.9885 9.61585 36.988Z" fill="#ED514E"/>
<path d="M18.0978 34.3702V33.0611C18.3653 33.0611 18.7502 32.5506 18.7502 31.7521C18.7502 30.9536 18.3653 30.443 18.0978 30.443V29.134C19.1939 29.134 20.0552 30.2859 20.0552 31.7521C20.0552 33.2182 19.1939 34.3702 18.0978 34.3702Z" fill="#ED514E"/>
<path d="M9.61563 37.6429H5.70081C5.35472 37.6429 5.0228 37.505 4.77808 37.2595C4.53336 37.014 4.39587 36.681 4.39587 36.3338V35.0248H5.70081V36.3338H10.9206C10.9206 36.681 10.7831 37.014 10.5384 37.2595C10.2936 37.505 9.96172 37.6429 9.61563 37.6429Z" fill="#ED514E"/>
<path d="M10.9204 42.879H8.49978C8.11222 42.8784 7.73358 42.7623 7.41183 42.5456C7.09008 42.3289 6.83971 42.0212 6.69244 41.6616C6.09112 40.1743 5.75541 38.5924 5.70068 36.9883H7.00562C7.06133 38.4237 7.36373 39.8386 7.8995 41.1707C7.94945 41.289 8.03301 41.39 8.13975 41.461C8.24649 41.532 8.3717 41.5699 8.49978 41.57H10.268C10.0977 41.571 9.93382 41.5052 9.81124 41.3867C8.31056 39.8944 8.31056 37.0996 8.31056 36.9883H9.6155C9.6155 36.9883 9.6155 39.1024 10.5551 40.2609H10.9204C11.2665 40.2609 11.5984 40.3988 11.8432 40.6443C12.0879 40.8898 12.2254 41.2228 12.2254 41.57C12.2254 41.9172 12.0879 42.2501 11.8432 42.4956C11.5984 42.7411 11.2665 42.879 10.9204 42.879Z" fill="#ED514E"/>
<path d="M2.43861 33.7157H1.78614C1.02928 33.7157 0.481201 32.891 0.481201 31.7521C0.481201 30.6132 1.02928 29.7885 1.78614 29.7885H2.43861V31.0976H1.91663C1.83049 31.305 1.78614 31.5274 1.78614 31.7521C1.78614 31.9768 1.83049 32.1992 1.91663 32.4066H2.43861V33.7157Z" fill="#ED514E"/>
<path d="M20.7075 40.2608C18.5674 40.2608 17.4452 35.9802 17.4452 31.752C17.4452 27.5237 18.5674 23.2431 20.7075 23.2431C22.8476 23.2431 23.9699 27.5237 23.9699 31.752C23.9699 35.9802 22.8476 40.2608 20.7075 40.2608ZM20.7075 24.5522C20.0551 24.5522 18.7501 27.0917 18.7501 31.752C18.7501 36.4122 20.0551 38.9518 20.7075 38.9518C21.36 38.9518 22.6649 36.4122 22.6649 31.752C22.6649 27.0917 21.36 24.5522 20.7075 24.5522Z" fill="#ED514E"/>
<path d="M29.8422 33.7157H28.5372C28.0181 33.7157 27.5202 33.5088 27.1531 33.1406C26.7861 32.7723 26.5798 32.2729 26.5798 31.7521C26.5798 31.2313 26.7861 30.7319 27.1531 30.3636C27.5202 29.9954 28.0181 29.7885 28.5372 29.7885H29.8422C30.3613 29.7885 30.8592 29.9954 31.2263 30.3636C31.5934 30.7319 31.7996 31.2313 31.7996 31.7521C31.7996 32.2729 31.5934 32.7723 31.2263 33.1406C30.8592 33.5088 30.3613 33.7157 29.8422 33.7157ZM28.5372 31.0976C28.3642 31.0976 28.1982 31.1665 28.0759 31.2893C27.9535 31.412 27.8848 31.5785 27.8848 31.7521C27.8848 31.9257 27.9535 32.0922 28.0759 32.2149C28.1982 32.3377 28.3642 32.4066 28.5372 32.4066H29.8422C30.0152 32.4066 30.1812 32.3377 30.3035 32.2149C30.4259 32.0922 30.4946 31.9257 30.4946 31.7521C30.4946 31.5785 30.4259 31.412 30.3035 31.2893C30.1812 31.1665 30.0152 31.0976 29.8422 31.0976H28.5372Z" fill="#ED514E"/>
<path d="M27.885 40.9154C27.3661 40.9149 26.8685 40.7077 26.5018 40.3394L25.1968 39.0303C24.8303 38.6622 24.6244 38.1631 24.6244 37.6427C24.6244 37.1224 24.8303 36.6233 25.1968 36.2551C25.5702 35.8997 26.0653 35.7016 26.5801 35.7016C27.0948 35.7016 27.5899 35.8997 27.9633 36.2551L29.2682 37.5642C29.5416 37.8388 29.7278 38.1885 29.8032 38.5692C29.8786 38.9499 29.8398 39.3444 29.6918 39.703C29.5438 40.0616 29.2932 40.3681 28.9716 40.5839C28.65 40.7997 28.2719 40.915 27.885 40.9154ZM26.5801 36.9882C26.4505 36.9875 26.3236 37.0254 26.2156 37.0973C26.1076 37.1692 26.0234 37.2717 25.9737 37.3917C25.924 37.5118 25.9111 37.644 25.9366 37.7715C25.9621 37.8989 26.0248 38.0159 26.1168 38.1075L27.4218 39.4165C27.4824 39.4779 27.5546 39.5266 27.6341 39.5598C27.7136 39.593 27.7989 39.6101 27.885 39.6101C27.9711 39.6101 28.0564 39.593 28.1359 39.5598C28.2154 39.5266 28.2876 39.4779 28.3483 39.4165C28.4094 39.3557 28.458 39.2833 28.4911 39.2035C28.5242 39.1238 28.5413 39.0382 28.5413 38.9518C28.5413 38.8654 28.5242 38.7798 28.4911 38.7001C28.458 38.6203 28.4094 38.5479 28.3483 38.4871L27.0433 37.178C26.9824 37.1174 26.9101 37.0694 26.8306 37.0368C26.7511 37.0042 26.6659 36.9877 26.5801 36.9882Z" fill="#ED514E"/>
<path d="M13.5305 15.3889C13.1434 15.3889 12.7649 15.2737 12.4431 15.058C12.1212 14.8422 11.8703 14.5355 11.7221 14.1767C11.574 13.8179 11.5352 13.4231 11.6107 13.0422C11.6863 12.6613 11.8727 12.3115 12.1464 12.0369C12.4202 11.7622 12.769 11.5752 13.1487 11.4995C13.5284 11.4237 13.9219 11.4626 14.2796 11.6112C14.6373 11.7598 14.943 12.0115 15.1581 12.3344C15.3731 12.6573 15.4879 13.037 15.4879 13.4253C15.4879 13.9461 15.2817 14.4455 14.9146 14.8138C14.5475 15.182 14.0497 15.3889 13.5305 15.3889ZM13.5305 12.7708C13.4015 12.7708 13.2753 12.8092 13.168 12.8811C13.0607 12.953 12.9771 13.0552 12.9277 13.1748C12.8783 13.2944 12.8654 13.426 12.8906 13.553C12.9158 13.68 12.9779 13.7966 13.0692 13.8881C13.1604 13.9797 13.2767 14.042 13.4032 14.0673C13.5298 14.0925 13.661 14.0796 13.7802 14.03C13.8994 13.9805 14.0013 13.8966 14.073 13.789C14.1447 13.6813 14.183 13.5548 14.183 13.4253C14.183 13.2517 14.1143 13.0852 13.9919 12.9625C13.8695 12.8397 13.7036 12.7708 13.5305 12.7708Z" fill="#ED514E"/>
<path d="M15.4883 19.3161H11.5735C11.4004 19.3161 11.2345 19.2471 11.1121 19.1243C10.9898 19.0016 10.921 18.8351 10.921 18.6615V16.6979C10.921 16.0036 11.196 15.3377 11.6854 14.8467C12.1749 14.3557 12.8387 14.0798 13.5309 14.0798C14.2231 14.0798 14.8869 14.3557 15.3764 14.8467C15.8658 15.3377 16.1408 16.0036 16.1408 16.6979V18.6615C16.1408 18.8351 16.072 19.0016 15.9497 19.1243C15.8273 19.2471 15.6613 19.3161 15.4883 19.3161ZM12.226 18.007H14.8358V16.6979C14.8358 16.3508 14.6983 16.0178 14.4536 15.7723C14.2089 15.5268 13.877 15.3889 13.5309 15.3889C13.1848 15.3889 12.8529 15.5268 12.6082 15.7723C12.3634 16.0178 12.226 16.3508 12.226 16.6979V18.007Z" fill="#ED514E"/>
<path d="M13.5303 23.2434C11.9818 23.2434 10.468 22.7827 9.18041 21.9197C7.89283 21.0567 6.88929 19.83 6.29668 18.3948C5.70408 16.9596 5.54902 15.3804 5.85113 13.8568C6.15324 12.3332 6.89894 10.9337 7.99393 9.83521C9.08893 8.73677 10.484 7.98871 12.0028 7.68565C13.5216 7.38259 15.0959 7.53813 16.5266 8.13261C17.9573 8.72708 19.1801 9.73379 20.0404 11.0254C20.9007 12.3171 21.3599 13.8356 21.3599 15.3891C21.3599 17.4722 20.535 19.4699 19.0667 20.9429C17.5984 22.4159 15.6069 23.2434 13.5303 23.2434ZM13.5303 8.84379C12.2399 8.84379 10.9784 9.22766 9.90539 9.94687C8.83241 10.6661 7.99613 11.6883 7.50229 12.8843C7.00845 14.0803 6.87924 15.3963 7.131 16.666C7.38275 17.9356 8.00417 19.1019 8.91666 20.0173C9.82916 20.9326 10.9917 21.556 12.2574 21.8086C13.5231 22.0611 14.835 21.9315 16.0272 21.4361C17.2194 20.9407 18.2385 20.1018 18.9554 19.0254C19.6723 17.9491 20.055 16.6836 20.055 15.3891C20.055 13.6531 19.3676 11.9883 18.144 10.7609C16.9204 9.53338 15.2608 8.84379 13.5303 8.84379Z" fill="#ED514E"/>
<path d="M13.5304 9.49824C13.3574 9.49824 13.1914 9.42928 13.069 9.30653C12.9467 9.18378 12.8779 9.0173 12.8779 8.84371V7.53465C12.8779 7.36106 12.9467 7.19458 13.069 7.07183C13.1914 6.94909 13.3574 6.88013 13.5304 6.88013C13.7034 6.88013 13.8694 6.94909 13.9918 7.07183C14.1141 7.19458 14.1829 7.36106 14.1829 7.53465V8.84371C14.1829 9.0173 14.1141 9.18378 13.9918 9.30653C13.8694 9.42928 13.7034 9.49824 13.5304 9.49824Z" fill="#ED514E"/>
<path d="M7.00587 16.0435H5.70093C5.52789 16.0435 5.36193 15.9745 5.23957 15.8518C5.1172 15.729 5.04846 15.5626 5.04846 15.389C5.04846 15.2154 5.1172 15.0489 5.23957 14.9261C5.36193 14.8034 5.52789 14.7344 5.70093 14.7344H7.00587C7.17891 14.7344 7.34487 14.8034 7.46723 14.9261C7.5896 15.0489 7.65834 15.2154 7.65834 15.389C7.65834 15.5626 7.5896 15.729 7.46723 15.8518C7.34487 15.9745 7.17891 16.0435 7.00587 16.0435Z" fill="#ED514E"/>
<path d="M21.3605 16.0435H20.0555C19.8825 16.0435 19.7165 15.9745 19.5942 15.8518C19.4718 15.729 19.4031 15.5626 19.4031 15.389C19.4031 15.2154 19.4718 15.0489 19.5942 14.9261C19.7165 14.8034 19.8825 14.7344 20.0555 14.7344H21.3605C21.5335 14.7344 21.6995 14.8034 21.8218 14.9261C21.9442 15.0489 22.013 15.2154 22.013 15.389C22.013 15.5626 21.9442 15.729 21.8218 15.8518C21.6995 15.9745 21.5335 16.0435 21.3605 16.0435Z" fill="#ED514E"/>
<path d="M13.5304 23.8977C13.3574 23.8977 13.1914 23.8288 13.069 23.706C12.9467 23.5833 12.8779 23.4168 12.8779 23.2432V21.9341C12.8779 21.7605 12.9467 21.5941 13.069 21.4713C13.1914 21.3486 13.3574 21.2796 13.5304 21.2796C13.7034 21.2796 13.8694 21.3486 13.9918 21.4713C14.1141 21.5941 14.1829 21.7605 14.1829 21.9341V23.2432C14.1829 23.4168 14.1141 23.5833 13.9918 23.706C13.8694 23.8288 13.7034 23.8977 13.5304 23.8977Z" fill="#ED514E"/>
<path d="M32.4514 21.2797C32.0643 21.2797 31.6858 21.1645 31.3639 20.9488C31.0421 20.733 30.7912 20.4264 30.643 20.0676C30.4949 19.7088 30.4561 19.3139 30.5316 18.933C30.6072 18.5521 30.7936 18.2023 31.0673 17.9277C31.3411 17.653 31.6899 17.466 32.0696 17.3903C32.4493 17.3145 32.8428 17.3534 33.2005 17.502C33.5582 17.6506 33.8639 17.9023 34.079 18.2252C34.294 18.5481 34.4088 18.9278 34.4088 19.3161C34.4088 19.8369 34.2026 20.3363 33.8355 20.7046C33.4684 21.0728 32.9706 21.2797 32.4514 21.2797ZM32.4514 18.6616C32.3224 18.6616 32.1962 18.7 32.0889 18.7719C31.9816 18.8438 31.898 18.946 31.8486 19.0656C31.7992 19.1852 31.7863 19.3168 31.8115 19.4438C31.8367 19.5708 31.8988 19.6874 31.9901 19.7789C32.0813 19.8705 32.1976 19.9328 32.3241 19.9581C32.4507 19.9833 32.5819 19.9704 32.7011 19.9208C32.8203 19.8713 32.9222 19.7874 32.9939 19.6798C33.0656 19.5721 33.1039 19.4456 33.1039 19.3161C33.1039 19.1425 33.0352 18.976 32.9128 18.8533C32.7904 18.7306 32.6245 18.6616 32.4514 18.6616Z" fill="#ED514E"/>
<path d="M34.4092 25.2069H30.4944C30.3213 25.2069 30.1554 25.138 30.033 25.0152C29.9107 24.8925 29.8419 24.726 29.8419 24.5524V22.5888C29.8419 21.8944 30.1169 21.2285 30.6063 20.7375C31.0958 20.2465 31.7596 19.9707 32.4518 19.9707C33.144 19.9707 33.8078 20.2465 34.2973 20.7375C34.7867 21.2285 35.0617 21.8944 35.0617 22.5888V24.5524C35.0617 24.726 34.9929 24.8925 34.8706 25.0152C34.7482 25.138 34.5822 25.2069 34.4092 25.2069ZM31.1469 23.8979H33.7567V22.5888C33.7567 22.2416 33.6192 21.9087 33.3745 21.6632C33.1298 21.4177 32.7979 21.2798 32.4518 21.2798C32.1057 21.2798 31.7738 21.4177 31.5291 21.6632C31.2843 21.9087 31.1469 22.2416 31.1469 22.5888V23.8979Z" fill="#ED514E"/>
<path d="M32.4516 29.134C30.903 29.134 29.3892 28.6733 28.1017 27.8103C26.8141 26.9472 25.8106 25.7205 25.2179 24.2853C24.6253 22.8502 24.4703 21.2709 24.7724 19.7473C25.0745 18.2237 25.8202 16.8242 26.9152 15.7258C28.0102 14.6273 29.4053 13.8793 30.9241 13.5762C32.4429 13.2732 34.0172 13.4287 35.4479 14.0232C36.8785 14.6176 38.1013 15.6244 38.9617 16.916C39.822 18.2076 40.2812 19.7262 40.2812 21.2796C40.2812 23.3627 39.4563 25.3605 37.988 26.8335C36.5196 28.3064 34.5281 29.134 32.4516 29.134ZM32.4516 14.7344C31.1611 14.7344 29.8996 15.1182 28.8267 15.8374C27.7537 16.5566 26.9174 17.5789 26.4236 18.7749C25.9297 19.9709 25.8005 21.2869 26.0523 22.5565C26.304 23.8262 26.9254 24.9925 27.8379 25.9078C28.7504 26.8232 29.913 27.4466 31.1787 27.6991C32.4443 27.9517 33.7562 27.8221 34.9485 27.3267C36.1407 26.8313 37.1597 25.9924 37.8767 24.916C38.5936 23.8396 38.9763 22.5742 38.9763 21.2796C38.9763 19.5437 38.2889 17.8789 37.0652 16.6514C35.8416 15.4239 34.182 14.7344 32.4516 14.7344Z" fill="#ED514E"/>
<path d="M32.4517 15.389C32.2786 15.389 32.1127 15.3201 31.9903 15.1973C31.8679 15.0746 31.7992 14.9081 31.7992 14.7345V13.4255C31.7992 13.2519 31.8679 13.0854 31.9903 12.9626C32.1127 12.8399 32.2786 12.7709 32.4517 12.7709C32.6247 12.7709 32.7907 12.8399 32.913 12.9626C33.0354 13.0854 33.1041 13.2519 33.1041 13.4255V14.7345C33.1041 14.9081 33.0354 15.0746 32.913 15.1973C32.7907 15.3201 32.6247 15.389 32.4517 15.389Z" fill="#ED514E"/>
<path d="M25.9268 21.9343H24.6218C24.4488 21.9343 24.2828 21.8653 24.1605 21.7426C24.0381 21.6198 23.9694 21.4534 23.9694 21.2798C23.9694 21.1062 24.0381 20.9397 24.1605 20.817C24.2828 20.6942 24.4488 20.6252 24.6218 20.6252H25.9268C26.0998 20.6252 26.2658 20.6942 26.3881 20.817C26.5105 20.9397 26.5792 21.1062 26.5792 21.2798C26.5792 21.4534 26.5105 21.6198 26.3881 21.7426C26.2658 21.8653 26.0998 21.9343 25.9268 21.9343Z" fill="#ED514E"/>
<path d="M40.2813 21.9343H38.9763C38.8033 21.9343 38.6373 21.8653 38.515 21.7426C38.3926 21.6198 38.3239 21.4534 38.3239 21.2798C38.3239 21.1062 38.3926 20.9397 38.515 20.817C38.6373 20.6942 38.8033 20.6252 38.9763 20.6252H40.2813C40.4543 20.6252 40.6203 20.6942 40.7426 20.817C40.865 20.9397 40.9337 21.1062 40.9337 21.2798C40.9337 21.4534 40.865 21.6198 40.7426 21.7426C40.6203 21.8653 40.4543 21.9343 40.2813 21.9343Z" fill="#ED514E"/>
<path d="M32.4517 29.7885C32.2786 29.7885 32.1127 29.7196 31.9903 29.5968C31.8679 29.4741 31.7992 29.3076 31.7992 29.134V27.8249C31.7992 27.6513 31.8679 27.4849 31.9903 27.3621C32.1127 27.2394 32.2786 27.1704 32.4517 27.1704C32.6247 27.1704 32.7907 27.2394 32.913 27.3621C33.0354 27.4849 33.1041 27.6513 33.1041 27.8249V29.134C33.1041 29.3076 33.0354 29.4741 32.913 29.5968C32.7907 29.7196 32.6247 29.7885 32.4517 29.7885Z" fill="#ED514E"/>
<path d="M23.3173 14.7345C22.2755 14.7356 21.2486 14.4865 20.3225 14.0079L20.9228 12.8429C21.6625 13.2279 22.484 13.4278 23.3173 13.4254C24.3497 13.4254 25.3589 13.1183 26.2173 12.543C27.0757 11.9676 27.7447 11.1498 28.1398 10.193C28.5348 9.23622 28.6382 8.18339 28.4368 7.16766C28.2354 6.15194 27.7382 5.21893 27.0083 4.48663C26.2783 3.75433 25.3482 3.25563 24.3357 3.05359C23.3231 2.85155 22.2736 2.95525 21.3198 3.35156C20.366 3.74788 19.5508 4.41902 18.9773 5.28011C18.4037 6.1412 18.0976 7.15357 18.0976 8.1892C18.0983 8.58118 18.1421 8.97188 18.2281 9.35426L16.9558 9.64225C16.8457 9.16583 16.791 8.67824 16.7926 8.1892C16.7926 6.89467 17.1753 5.6292 17.8922 4.55284C18.6092 3.47647 19.6282 2.63755 20.8204 2.14215C22.0127 1.64676 23.3246 1.51714 24.5902 1.76969C25.8559 2.02224 27.0185 2.64562 27.931 3.56099C28.8435 4.47636 29.4649 5.64262 29.7167 6.91228C29.9684 8.18194 29.8392 9.49797 29.3454 10.694C28.8515 11.89 28.0152 12.9122 26.9423 13.6314C25.8693 14.3506 24.6078 14.7345 23.3173 14.7345Z" fill="#ED514E"/>
<path d="M29.8424 8.84378H28.5375C28.3644 8.84378 28.1985 8.77482 28.0761 8.65208C27.9538 8.52933 27.885 8.36285 27.885 8.18926C27.885 8.01566 27.9538 7.84918 28.0761 7.72644C28.1985 7.60369 28.3644 7.53473 28.5375 7.53473H29.8424C30.0155 7.53473 30.1814 7.60369 30.3038 7.72644C30.4261 7.84918 30.4949 8.01566 30.4949 8.18926C30.4949 8.36285 30.4261 8.52933 30.3038 8.65208C30.1814 8.77482 30.0155 8.84378 29.8424 8.84378Z" fill="#ED514E"/>
<path d="M23.3171 3.60743C23.1441 3.60743 22.9781 3.53847 22.8558 3.41572C22.7334 3.29297 22.6647 3.12649 22.6647 2.9529V1.64385C22.6647 1.47025 22.7334 1.30377 22.8558 1.18103C22.9781 1.05828 23.1441 0.989319 23.3171 0.989319C23.4902 0.989319 23.6561 1.05828 23.7785 1.18103C23.9009 1.30377 23.9696 1.47025 23.9696 1.64385V2.9529C23.9696 3.12649 23.9009 3.29297 23.7785 3.41572C23.6561 3.53847 23.4902 3.60743 23.3171 3.60743Z" fill="#ED514E"/>
<path d="M23.3171 15.389C23.1441 15.389 22.9781 15.3201 22.8558 15.1973C22.7334 15.0746 22.6647 14.9081 22.6647 14.7345V13.4255C22.6647 13.2519 22.7334 13.0854 22.8558 12.9626C22.9781 12.8399 23.1441 12.7709 23.3171 12.7709C23.4902 12.7709 23.6561 12.8399 23.7785 12.9626C23.9009 13.0854 23.9696 13.2519 23.9696 13.4255V14.7345C23.9696 14.9081 23.9009 15.0746 23.7785 15.1973C23.6561 15.3201 23.4902 15.389 23.3171 15.389Z" fill="#ED514E"/>
<path d="M18.0979 8.84378H16.793C16.6199 8.84378 16.454 8.77482 16.3316 8.65208C16.2092 8.52933 16.1405 8.36285 16.1405 8.18926C16.1405 8.01566 16.2092 7.84918 16.3316 7.72644C16.454 7.60369 16.6199 7.53473 16.793 7.53473H18.0979C18.271 7.53473 18.4369 7.60369 18.5593 7.72644C18.6816 7.84918 18.7504 8.01566 18.7504 8.18926C18.7504 8.36285 18.6816 8.52933 18.5593 8.65208C18.4369 8.77482 18.271 8.84378 18.0979 8.84378Z" fill="#ED514E"/>
</svg>
