<svg width="30" height="31" viewBox="0 0 30 31" fill="none" xmlns="http://www.w3.org/2000/svg">
<path d="M28.2994 29.3792V13.57L22.2832 10.8962V7.9884H21.2806V6.23703L15.9329 3.56318V0.635315H14.5959V3.56318L9.24824 6.23703V7.9884H8.24554V10.9363L2.22938 14.2786V29.3792H0.558228V30.7161H29.9706V29.3792H28.2994ZM8.24554 29.3792H3.56631V15.0674L8.24554 12.4671V29.3792ZM10.5852 7.06592L15.2644 4.7263L19.9436 7.06592V7.9884H10.5852V7.06592ZM11.9221 29.3792H9.58247V25.3684H11.9221V29.3792ZM17.2698 29.3792H13.259V25.3684H17.2698V29.3792ZM20.9463 29.3792H18.6067V25.3684H20.9463V29.3792ZM20.9463 24.0315H9.58247V9.32532H20.9463V24.0315ZM26.9625 29.3792H22.2832V12.3601L26.9625 14.439V29.3792Z" fill="#ED514E"/>
<path d="M16.2674 16.0099H14.262V17.3469H16.2674V16.0099Z" fill="#ED514E"/>
<path d="M19.6096 16.0099H17.6042V17.3469H19.6096V16.0099Z" fill="#ED514E"/>
<path d="M16.2674 18.6836H14.262V20.0205H16.2674V18.6836Z" fill="#ED514E"/>
<path d="M19.6096 18.6836H17.6042V20.0205H19.6096V18.6836Z" fill="#ED514E"/>
<path d="M16.2674 21.3578H14.262V22.6947H16.2674V21.3578Z" fill="#ED514E"/>
<path d="M19.6096 21.3578H17.6042V22.6947H19.6096V21.3578Z" fill="#ED514E"/>
<path d="M12.9246 16.0099H10.9193V17.3469H12.9246V16.0099Z" fill="#ED514E"/>
<path d="M16.2674 13.3358H14.262V14.6727H16.2674V13.3358Z" fill="#ED514E"/>
<path d="M19.6096 13.3358H17.6042V14.6727H19.6096V13.3358Z" fill="#ED514E"/>
<path d="M12.9246 13.3358H10.9193V14.6727H12.9246V13.3358Z" fill="#ED514E"/>
<path d="M16.2674 10.6621H14.262V11.999H16.2674V10.6621Z" fill="#ED514E"/>
<path d="M19.6096 10.6621H17.6042V11.999H19.6096V10.6621Z" fill="#ED514E"/>
<path d="M12.9246 10.6621H10.9193V11.999H12.9246V10.6621Z" fill="#ED514E"/>
<path d="M12.9246 18.6836H10.9193V20.0205H12.9246V18.6836Z" fill="#ED514E"/>
<path d="M12.9246 21.3578H10.9193V22.6947H12.9246V21.3578Z" fill="#ED514E"/>
<path d="M6.90883 21.3578H4.90344V22.6947H6.90883V21.3578Z" fill="#ED514E"/>
<path d="M6.90883 24.0311H4.90344V25.3681H6.90883V24.0311Z" fill="#ED514E"/>
<path d="M6.90883 26.7053H4.90344V28.0422H6.90883V26.7053Z" fill="#ED514E"/>
<path d="M6.90883 16.0099H4.90344V17.3469H6.90883V16.0099Z" fill="#ED514E"/>
<path d="M6.90883 18.6836H4.90344V20.0205H6.90883V18.6836Z" fill="#ED514E"/>
<path d="M25.6254 21.3578H23.6201V22.6947H25.6254V21.3578Z" fill="#ED514E"/>
<path d="M25.6254 24.0311H23.6201V25.3681H25.6254V24.0311Z" fill="#ED514E"/>
<path d="M25.6254 26.7053H23.6201V28.0422H25.6254V26.7053Z" fill="#ED514E"/>
<path d="M25.6254 16.0099H23.6201V17.3469H25.6254V16.0099Z" fill="#ED514E"/>
<path d="M25.6254 18.6836H23.6201V20.0205H25.6254V18.6836Z" fill="#ED514E"/>
</svg>
