<svg width="44" height="44" viewBox="0 0 44 44" fill="none" xmlns="http://www.w3.org/2000/svg">
<path d="M21.9204 30.9466C17.0947 30.9466 13.1684 27.0203 13.1684 22.1946C13.1684 17.3689 17.0947 13.4426 21.9204 13.4426C26.7461 13.4426 30.6723 17.3689 30.6723 22.1946C30.6723 27.0203 26.7461 30.9466 21.9204 30.9466ZM21.9204 14.7891C17.8372 14.7891 14.5149 18.1115 14.5149 22.1946C14.5149 26.2777 17.8372 29.6001 21.9204 29.6001C26.0035 29.6001 29.3259 26.2777 29.3259 22.1946C29.3259 18.1115 26.0035 14.7891 21.9204 14.7891Z" fill="#ED514E"/>
<path d="M21.9204 9.40326C14.867 9.40326 9.12903 15.1412 9.12903 22.1946C9.12903 29.248 14.867 34.9859 21.9204 34.9859C28.9738 34.9859 34.7117 29.248 34.7117 22.1946C34.7117 15.1412 28.9738 9.40326 21.9204 9.40326ZM21.9204 33.6395C15.6095 33.6395 10.4755 28.5054 10.4755 22.1946C10.4755 15.8838 15.6095 10.7497 21.9204 10.7497C28.2312 10.7497 33.3652 15.8838 33.3652 22.1946C33.3652 28.5054 28.2312 33.6395 21.9204 33.6395Z" fill="#ED514E"/>
<path d="M8.45572 8.0567C8.08545 8.0567 7.78249 8.35965 7.78249 8.72993V13.4425H6.43604V8.72993C6.43604 8.35965 6.13309 8.0567 5.76281 8.0567C5.39253 8.0567 5.08958 8.35965 5.08958 8.72993V13.4425H3.74312V8.72993C3.74312 8.35965 3.44017 8.0567 3.0699 8.0567C2.69962 8.0567 2.39667 8.35965 2.39667 8.72993V16.1354C2.39667 16.9366 2.67942 17.7041 3.19781 18.31C3.4469 18.6062 3.74312 19.0774 3.74312 19.643V25.601C3.74312 26.9004 3.63541 28.2132 3.41997 29.499L2.84773 32.8854C2.70635 33.7471 2.94198 34.6223 3.50749 35.2821C4.06627 35.9486 4.89434 36.3323 5.76281 36.3323C7.39202 36.3323 8.71828 35.0128 8.71828 33.3836C8.71828 33.222 8.70482 33.0604 8.67789 32.8854L8.10564 29.499C7.89021 28.2132 7.78249 26.9004 7.78249 25.601V19.643C7.78249 19.0774 8.07872 18.6062 8.32781 18.31C8.8462 17.7041 9.12895 16.9366 9.12895 16.1354V8.72993C9.12895 8.35965 8.826 8.0567 8.45572 8.0567ZM7.78249 16.1354C7.78249 16.6134 7.61419 17.078 7.3045 17.4415C6.73899 18.108 6.43604 18.8687 6.43604 19.643V25.601C6.43604 26.9744 6.55049 28.3613 6.77938 29.7212L7.3449 33.1075C7.35836 33.195 7.37183 33.2893 7.37183 33.3836C7.37183 34.2655 6.65147 34.9858 5.76281 34.9858C5.29155 34.9858 4.84049 34.7771 4.53753 34.4136C4.22785 34.0568 4.09994 33.5788 4.18072 33.1143L4.74623 29.7212C4.97513 28.3613 5.08958 26.9744 5.08958 25.601V19.643C5.08958 18.8687 4.78663 18.108 4.22112 17.4415C3.91143 17.078 3.74312 16.6134 3.74312 16.1354V14.789H7.78249V16.1354Z" fill="#ED514E"/>
<path d="M38.0778 36.3324C36.4479 36.3324 35.1224 35.0095 35.1224 33.3836C35.1224 33.2207 35.1385 33.0578 35.1641 32.8935L35.7336 29.4957C35.9491 28.2125 36.0581 26.9024 36.0581 25.6011V18.6527C36.0581 18.4359 35.941 18.2286 35.737 18.0825C34.6733 17.3204 34.0385 16.0897 34.0385 14.789C34.0385 12.7909 35.6064 8.05676 38.0778 8.05676C40.5492 8.05676 42.1172 12.7909 42.1172 14.789C42.1172 16.0897 41.4823 17.3204 40.418 18.0825C40.2147 18.2279 40.0975 18.4359 40.0975 18.6527V25.6011C40.0975 26.9024 40.2066 28.2132 40.4213 29.4964L40.9902 32.8888C41.135 33.7458 40.896 34.6197 40.3338 35.2848C39.7717 35.9506 38.949 36.3324 38.0778 36.3324ZM38.0778 9.40322C36.866 9.40322 35.3849 13.009 35.3849 14.789C35.3849 15.6562 35.8097 16.4782 36.5213 16.9878C37.0828 17.3897 37.4046 17.9963 37.4046 18.6527V25.6011C37.4046 26.9765 37.2895 28.3627 37.0619 29.7186L36.493 33.1116C36.4789 33.1985 36.4681 33.2914 36.4681 33.3843C36.4681 34.2676 37.1898 34.9866 38.0771 34.9866C38.5511 34.9866 38.9988 34.7785 39.3051 34.4157C39.6108 34.0541 39.7407 33.5788 39.6619 33.1123L39.0931 29.7192C38.8662 28.362 38.7511 26.9765 38.7511 25.6011V18.6527C38.7511 17.9963 39.0729 17.3897 39.6343 16.9878C40.3459 16.4782 40.7707 15.6562 40.7707 14.789C40.7707 13.009 39.2896 9.40322 38.0778 9.40322Z" fill="#ED514E"/>
</svg>
