<svg width="37" height="26" viewBox="0 0 37 26" fill="none" xmlns="http://www.w3.org/2000/svg">
<path d="M12.7461 25.0033L9.05098 16.2321L5.88184 25.0033H12.7461Z" fill="white" stroke="#ED514E" stroke-width="1.19685" stroke-linecap="round" stroke-linejoin="round"/>
<path d="M1.51236 25.0034L18.4087 25.403L34.7664 23.6713C35.4182 23.6713 35.8851 23.0425 35.6958 22.4187L30.3116 5.98219C30.0003 4.95566 29.1326 4.19593 28.0743 4.02315L11.1964 1.26754C10.1063 1.08968 9.04487 1.71601 8.6739 2.75651L1.001 24.2773C0.874591 24.6312 1.13694 25.0028 1.51236 25.0028V25.0034Z" stroke="#ED514E" stroke-width="1.19685" stroke-linecap="round" stroke-linejoin="round"/>
<path d="M10.8604 5.0484L18.4087 25.0034" stroke="#ED514E" stroke-width="1.19685" stroke-linecap="round" stroke-linejoin="round"/>
<path d="M18.5942 8.12303L20.0025 12.7634C20.2216 13.4856 20.881 13.9849 21.6357 14.0001L26.9703 14.1081L25.7919 9.85529C25.562 9.02441 24.8601 8.40952 24.0057 8.29073L19.0408 7.5996C18.7454 7.55831 18.5072 7.83718 18.5936 8.12239L18.5942 8.12303Z" fill="white" stroke="#ED514E" stroke-width="1.19685" stroke-linecap="round" stroke-linejoin="round"/>
</svg>
