<svg width="53" height="73" viewBox="0 0 53 73" fill="none" xmlns="http://www.w3.org/2000/svg">
<path fill-rule="evenodd" clip-rule="evenodd" d="M7.51445 -0.000244141H44.738C48.8701 -0.000244141 52.2525 3.38213 52.2525 7.5142V65.4504C52.2525 69.6174 48.8701 72.9998 44.738 72.9998H7.51445C3.38237 72.9998 0 69.6174 0 65.4504V7.5142C0 3.38213 3.38237 -0.000244141 7.51445 -0.000244141Z" fill="#636063"/>
<path fill-rule="evenodd" clip-rule="evenodd" d="M7.74038 4.28882H44.528C46.6028 4.28882 48.294 6.01487 48.294 8.05475V16.3538C48.294 18.4285 46.6028 20.1197 44.528 20.1197H7.74038C5.66562 20.1197 3.97443 18.4285 3.97443 16.3538V8.05475C3.97443 5.99743 5.66562 4.28882 7.74038 4.28882Z" fill="#4F4C4F"/>
<path fill-rule="evenodd" clip-rule="evenodd" d="M7.74155 5.4917H44.5292C45.9589 5.4917 47.127 6.65983 47.127 8.05462V16.3537C47.127 17.7833 45.9589 18.9514 44.5292 18.9514H7.74155C6.31189 18.9514 5.14374 17.7833 5.14374 16.3537V8.05462C5.14374 6.65983 6.31189 5.4917 7.74155 5.4917Z" fill="#A1B154"/>
<path fill-rule="evenodd" clip-rule="evenodd" d="M7.74155 5.4917H34.8703L17.9584 18.9689H7.74155C6.31189 18.9689 5.14374 17.8007 5.14374 16.3711V8.07207C5.14374 6.67728 6.31189 5.50912 7.74155 5.50912V5.4917Z" fill="#8C9D3E"/>
<path fill-rule="evenodd" clip-rule="evenodd" d="M0 24.234H48.0506C48.6434 24.234 49.0967 24.7222 49.0967 25.315C49.0967 25.9078 48.6434 26.3959 48.0506 26.3959H0V24.2515V24.234Z" fill="#4F4C4F"/>
<path fill-rule="evenodd" clip-rule="evenodd" d="M39.8209 39.1764H44.2145C45.4175 39.1764 46.4287 40.1527 46.4287 41.3558V45.7494C46.4287 46.9524 45.4175 47.9287 44.2145 47.9287H39.8209C38.6179 47.9287 37.6415 46.9524 37.6415 45.7494V41.3558C37.6415 40.1527 38.6179 39.1764 39.8209 39.1764Z" fill="#D6CDBC"/>
<path fill-rule="evenodd" clip-rule="evenodd" d="M29.2381 39.1764H33.6317C34.8347 39.1764 35.8111 40.1527 35.8111 41.3558V45.7494C35.8111 46.9524 34.8347 47.9287 33.6317 47.9287H29.2381C28.0351 47.9287 27.0239 46.9524 27.0239 45.7494V41.3558C27.0239 40.1527 28.0351 39.1764 29.2381 39.1764Z" fill="#D6CDBC"/>
<path fill-rule="evenodd" clip-rule="evenodd" d="M8.07189 39.1764H12.4306C13.6685 39.1764 14.6449 40.1527 14.6449 41.3558V45.7494C14.6449 46.9524 13.6685 47.9287 12.4306 47.9287H8.07189C6.83402 47.9287 5.85767 46.9524 5.85767 45.7494V41.3558C5.85767 40.1527 6.83402 39.1764 8.07189 39.1764Z" fill="#D6CDBC"/>
<path fill-rule="evenodd" clip-rule="evenodd" d="M29.2381 49.2885H33.6317C34.8347 49.2885 35.8111 50.2648 35.8111 51.4678V55.8614C35.8111 57.0644 34.8347 58.0756 33.6317 58.0756H29.2381C28.0351 58.0756 27.0239 57.0644 27.0239 55.8614V51.4678C27.0239 50.2648 28.0351 49.2885 29.2381 49.2885Z" fill="#D6CDBC"/>
<path fill-rule="evenodd" clip-rule="evenodd" d="M8.07189 49.2885H12.4306C13.6685 49.2885 14.6449 50.2648 14.6449 51.4678V55.8614C14.6449 57.0644 13.6685 58.0756 12.4306 58.0756H8.07189C6.83402 58.0756 5.85767 57.0644 5.85767 55.8614V51.4678C5.85767 50.2648 6.83402 49.2885 8.07189 49.2885Z" fill="#D6CDBC"/>
<path fill-rule="evenodd" clip-rule="evenodd" d="M29.2381 59.4001H33.6317C34.8347 59.4001 35.8111 60.3765 35.8111 61.5795V65.9731C35.8111 67.1761 34.8347 68.1874 33.6317 68.1874H29.2381C28.0351 68.1874 27.0239 67.1761 27.0239 65.9731V61.5795C27.0239 60.3765 28.0351 59.4001 29.2381 59.4001Z" fill="#D6CDBC"/>
<path fill-rule="evenodd" clip-rule="evenodd" d="M8.07189 59.4001H12.4306C13.6685 59.4001 14.6449 60.3765 14.6449 61.5795V65.9731C14.6449 67.1761 13.6685 68.1874 12.4306 68.1874H8.07189C6.83402 68.1874 5.85767 67.1761 5.85767 65.9731V61.5795C5.85767 60.3765 6.83402 59.4001 8.07189 59.4001Z" fill="#D6CDBC"/>
<path fill-rule="evenodd" clip-rule="evenodd" d="M18.6377 59.4001H23.0313C24.2343 59.4001 25.2106 60.3765 25.2106 61.5795V65.9731C25.2106 67.1761 24.2343 68.1874 23.0313 68.1874H18.6377C17.4347 68.1874 16.4583 67.1761 16.4583 65.9731V61.5795C16.4583 60.3765 17.4347 59.4001 18.6377 59.4001Z" fill="#D6CDBC"/>
<path fill-rule="evenodd" clip-rule="evenodd" d="M18.6377 49.2885H23.0313C24.2343 49.2885 25.2106 50.2648 25.2106 51.4678V55.8614C25.2106 57.0644 24.2343 58.0756 23.0313 58.0756H18.6377C17.4347 58.0756 16.4583 57.0644 16.4583 55.8614V51.4678C16.4583 50.2648 17.4347 49.2885 18.6377 49.2885Z" fill="#D6CDBC"/>
<path fill-rule="evenodd" clip-rule="evenodd" d="M39.8209 29.0116H44.2145C45.4175 29.0116 46.4287 30.0228 46.4287 31.2258V35.6194C46.4287 36.8224 45.4175 37.7988 44.2145 37.7988H39.8209C38.6179 37.7988 37.6415 36.8224 37.6415 35.6194V31.2258C37.6415 30.0228 38.6179 29.0116 39.8209 29.0116Z" fill="#DE6F78"/>
<path fill-rule="evenodd" clip-rule="evenodd" d="M29.2381 29.0116H33.6317C34.8347 29.0116 35.8111 30.0228 35.8111 31.2258V35.6194C35.8111 36.8224 34.8347 37.7988 33.6317 37.7988H29.2381C28.0351 37.7988 27.0239 36.8224 27.0239 35.6194V31.2258C27.0239 30.0228 28.0351 29.0116 29.2381 29.0116Z" fill="#D6CDBC"/>
<path fill-rule="evenodd" clip-rule="evenodd" d="M8.07189 29.0116H12.4306C13.6685 29.0116 14.6449 30.0228 14.6449 31.2258V35.6194C14.6449 36.8224 13.6685 37.7988 12.4306 37.7988H8.07189C6.83402 37.7988 5.85767 36.8224 5.85767 35.6194V31.2258C5.85767 30.0228 6.83402 29.0116 8.07189 29.0116Z" fill="#D6CDBC"/>
<path fill-rule="evenodd" clip-rule="evenodd" d="M18.6377 29.0116H23.0313C24.2343 29.0116 25.2106 30.0228 25.2106 31.2258V35.6194C25.2106 36.8224 24.2343 37.7988 23.0313 37.7988H18.6377C17.4347 37.7988 16.4583 36.8224 16.4583 35.6194V31.2258C16.4583 30.0228 17.4347 29.0116 18.6377 29.0116Z" fill="#D6CDBC"/>
<path fill-rule="evenodd" clip-rule="evenodd" d="M46.4287 61.58V65.9737C46.4287 67.1767 45.4175 68.1879 44.2145 68.1879H39.8209C38.6179 68.1879 37.6415 67.1767 37.6415 65.9737V51.4678C37.6415 50.2648 38.6179 49.2885 39.8209 49.2885H44.2145C45.4175 49.2885 46.4287 50.2648 46.4287 51.4678V61.58Z" fill="#D6CDBC"/>
<path fill-rule="evenodd" clip-rule="evenodd" d="M18.6377 39.1764H23.0313C24.2343 39.1764 25.2106 40.1527 25.2106 41.3558V45.7494C25.2106 46.9524 24.2343 47.9287 23.0313 47.9287H18.6377C17.4347 47.9287 16.4583 46.9524 16.4583 45.7494V41.3558C16.4583 40.1527 17.4347 39.1764 18.6377 39.1764Z" fill="#D6CDBC"/>
</svg>
