<svg width="53" height="73" viewBox="0 0 53 73" fill="none" xmlns="http://www.w3.org/2000/svg">
<path fill-rule="evenodd" clip-rule="evenodd" d="M1.47664 65.6295C-4.12164 55.6731 7.19549 36.2256 18.7021 18.8623H33.3265C44.902 36.3462 56.2708 55.9487 50.4314 65.8189C44.7987 75.3274 6.97156 75.4307 1.47664 65.6295Z" fill="#FFC610"/>
<path fill-rule="evenodd" clip-rule="evenodd" d="M1.47664 65.6295C-4.12164 55.6731 7.19549 36.2256 18.7021 18.8623H33.3265L33.5505 19.1896C26.7292 19.9992 23.3013 20.4126 19.8907 28.1641C15.6532 37.7759 10.9851 47.6977 9.79652 55.0702C8.02229 66.0256 20.4419 70.5043 35.1869 72.3991C22.0783 74.1905 5.00786 71.9857 1.47664 65.6467V65.6295Z" fill="#F6A31C"/>
<path fill-rule="evenodd" clip-rule="evenodd" d="M25.9888 -0.000244141C21.7858 -0.000244141 22.7676 3.85826 20.0115 4.18555C17.2555 4.54728 15.6018 0.705998 11.2094 1.77398C13.7243 6.82104 16.1875 11.9025 18.7024 16.9496H33.3268C35.8073 11.9025 38.305 6.82104 40.7855 1.77398C36.3758 0.705998 34.7393 4.53006 31.9833 4.18555C29.2272 3.85826 30.209 -0.000244141 26.006 -0.000244141H25.9888Z" fill="#FFC610"/>
<path fill-rule="evenodd" clip-rule="evenodd" d="M23.6115 0.671631C22.044 1.79129 22.0611 3.94447 20.0113 4.1684C18.4955 4.35788 17.307 3.27268 15.8083 2.46308C23.1119 20.1709 22.4057 19.723 23.6115 0.671631ZM35.721 2.72146C34.4291 3.49661 33.3438 4.32343 31.9658 4.1684C30.3294 3.97892 30.0021 2.56643 29.1753 1.41233C29.1064 16.1573 29.6231 13.8491 35.7382 2.73869L35.721 2.72146Z" fill="#F6A31C"/>
<path fill-rule="evenodd" clip-rule="evenodd" d="M18.5299 16.9325H33.4816C33.8605 16.9325 34.1878 17.3459 34.1878 17.8971C34.1878 18.4139 33.8605 18.8617 33.4816 18.8617H18.5299C18.1509 18.8617 17.8236 18.4139 17.8236 17.8971C17.8236 17.3459 18.1509 16.9325 18.5299 16.9325Z" fill="#636063"/>
<path fill-rule="evenodd" clip-rule="evenodd" d="M27.9519 18.3796C26.6599 23.2027 26.6944 22.9788 25.4197 27.8019C25.3164 28.1637 24.834 28.3532 24.3345 28.2154C23.8177 28.0948 23.4905 27.6641 23.5938 27.2852C24.8857 22.462 24.8168 22.7204 26.1087 17.8973C26.2121 17.5183 26.7116 17.3116 27.2284 17.4839C27.7107 17.6045 28.0724 18.0351 27.9691 18.3796H27.9519Z" fill="#636063"/>
<path fill-rule="evenodd" clip-rule="evenodd" d="M26.4701 18.2591C27.762 23.0822 27.073 20.5328 28.3649 25.356C28.4683 25.7177 28.9678 25.9072 29.4501 25.7694C29.9669 25.6488 30.3114 25.2181 30.1908 24.8392C28.8989 20.0161 29.6052 22.5826 28.2961 17.7595C28.1927 17.3978 27.7104 17.2083 27.2109 17.3461C26.6941 17.4667 26.3668 17.8973 26.4701 18.2418V18.2591Z" fill="#636063"/>
<path fill-rule="evenodd" clip-rule="evenodd" d="M44.2825 47.7313C45.85 47.7313 47.1418 49.0232 47.1418 50.5907C47.1418 52.1583 45.85 53.4846 44.2825 53.4846C42.715 53.4846 41.3885 52.1927 41.3885 50.5907C41.3885 48.9888 42.6805 47.7313 44.2825 47.7313Z" fill="#FFE281"/>
<path fill-rule="evenodd" clip-rule="evenodd" d="M46.0567 54.7079C48.0893 54.7079 49.6912 56.3443 49.6912 58.3769C49.6912 60.4095 48.0893 62.0459 46.0567 62.0459C44.0241 62.0459 42.3876 60.4095 42.3876 58.3769C42.3876 56.3443 44.0241 54.7079 46.0567 54.7079Z" fill="#FFE281"/>
</svg>
