<svg width="81" height="73" viewBox="0 0 81 73" fill="none" xmlns="http://www.w3.org/2000/svg">
<path fill-rule="evenodd" clip-rule="evenodd" d="M5.93405 15.6024H74.7816C78.062 15.6024 80.7156 18.256 80.7156 21.5365V67.0657C80.7156 70.3461 78.062 72.9997 74.7816 72.9997H5.93405C2.65361 72.9997 0 70.3461 0 67.0657V21.5365C0 18.256 2.65361 15.6024 5.93405 15.6024Z" fill="#FEF5E5"/>
<path fill-rule="evenodd" clip-rule="evenodd" d="M5.93405 15.6024H74.7816C78.062 15.6024 80.7156 18.256 80.7156 21.5365V27.2616H0V21.5365C0 18.256 2.65361 15.6024 5.93405 15.6024Z" fill="#6280A4"/>
<path fill-rule="evenodd" clip-rule="evenodd" d="M10.3222 19.426H52.6963C53.4694 19.426 54.0962 20.0529 54.0962 20.826V22.0378C54.0962 22.8109 53.4694 23.4378 52.6963 23.4378H10.3222C9.54908 23.4378 8.92224 22.8109 8.92224 22.0378V20.826C8.92224 20.0529 9.54908 19.426 10.3222 19.426Z" fill="white"/>
<path fill-rule="evenodd" clip-rule="evenodd" d="M65.6924 18.8H68.1788C68.9101 18.8 69.5369 19.4269 69.5369 20.1582V22.6864C69.5369 23.4177 68.9101 24.0028 68.1788 24.0028H65.6924C64.9193 24.0028 64.3342 23.4177 64.3342 22.6864V20.1582C64.3342 19.4269 64.9193 18.8 65.6924 18.8ZM72.0861 18.8H74.6143C75.3456 18.8 75.9307 19.4269 75.9307 20.1582V22.6864C75.9307 23.4177 75.3456 24.0028 74.6143 24.0028H72.0861C71.3548 24.0028 70.7279 23.4177 70.7279 22.6864V20.1582C70.7279 19.4269 71.3548 18.8 72.0861 18.8ZM59.2568 18.8H61.7851C62.5164 18.8 63.1014 19.4269 63.1014 20.1582V22.6864C63.1014 23.4177 62.5164 24.0028 61.7851 24.0028H59.2568C58.5255 24.0028 57.8987 23.4177 57.8987 22.6864V20.1582C57.8987 19.4269 58.5255 18.8 59.2568 18.8Z" fill="#A3BFDF"/>
<path fill-rule="evenodd" clip-rule="evenodd" d="M68.7431 9.56398V61.2989C68.7431 62.2809 67.8864 63.0958 66.9044 63.0958H63.2479C62.224 63.0958 61.4091 62.2809 61.4091 61.2989V9.56398H59.1107C58.7973 9.56398 58.5675 9.29235 58.5675 9.02072C58.5675 8.87446 58.6093 8.74909 58.6928 8.66551L64.6269 0.245013C64.8149 -0.0266163 65.1702 -0.0684053 65.4 0.0987511C65.4418 0.14054 65.4836 0.182329 65.5254 0.245013L71.5221 8.7073C71.6684 8.93714 71.6057 9.29235 71.3758 9.43861C71.2923 9.52219 71.1878 9.56398 71.0624 9.56398H68.764H68.7431ZM52.8006 31.5868H56.4362C57.4601 31.5868 58.275 32.4017 58.275 33.4256V61.2989C58.275 62.2809 57.4601 63.0958 56.4362 63.0958H52.8006C51.7768 63.0958 50.9619 62.2809 50.9619 61.2989V33.4256C50.9619 32.4017 51.7768 31.5868 52.8006 31.5868ZM42.3115 36.9985H45.9681C46.9919 36.9985 47.8068 37.8134 47.8068 38.8372V61.2989C47.8068 62.2809 46.9919 63.0958 45.9681 63.0958H42.3115C41.3295 63.0958 40.5146 62.2809 40.5146 61.2989V38.8372C40.5146 37.8134 41.3295 36.9985 42.3115 36.9985ZM31.8642 41.4491H35.5208C36.5446 41.4491 37.3595 42.2639 37.3595 43.2878V61.2989C37.3595 62.2809 36.5446 63.0958 35.5208 63.0958H31.8642C30.8404 63.0958 30.0255 62.2809 30.0255 61.2989V43.2878C30.0255 42.2639 30.8404 41.4491 31.8642 41.4491ZM21.417 47.8428H25.0526C26.0765 47.8428 26.8913 48.6577 26.8913 49.6397V61.2989C26.8913 62.2809 26.0765 63.0958 25.0526 63.0958H21.417C20.3931 63.0958 19.5783 62.2809 19.5783 61.2989V49.6397C19.5783 48.6577 20.3931 47.8428 21.417 47.8428ZM10.9279 56.7648H14.5845C15.6083 56.7648 16.4232 57.5796 16.4232 58.5617V61.2989C16.4232 62.2809 15.6083 63.0958 14.5845 63.0958H10.9279C9.94587 63.0958 9.13098 62.2809 9.13098 61.2989V58.5617C9.13098 57.5796 9.94587 56.7648 10.9279 56.7648Z" fill="#DE6F78"/>
<path fill-rule="evenodd" clip-rule="evenodd" d="M7.37635 66.3766H70.457C71.1674 66.3766 71.7524 66.9616 71.7524 67.672C71.7524 68.3407 71.1674 68.9257 70.457 68.9257H7.37635C6.66594 68.9257 6.12268 68.3407 6.12268 67.672C6.12268 66.9616 6.66594 66.3766 7.37635 66.3766Z" fill="#D6CDBC"/>
</svg>
