<svg width="160" height="174" viewBox="0 0 160 174" fill="none" xmlns="http://www.w3.org/2000/svg">
<path d="M158.324 140.359C156.429 136.568 151.706 133.676 145.41 135.765C139.884 137.596 131.531 139.877 122.375 141.483C122.697 140.455 122.889 139.331 122.921 138.174C122.954 136.279 122.311 132.841 117.749 131.267C115.5 130.496 112.705 130.303 109.718 130.078C106.601 129.853 103.068 129.596 100.016 128.665C96.8672 127.701 94.008 126.095 90.699 124.231C85.2376 121.147 78.4268 117.324 67.7289 115.397C52.5654 112.666 38.1408 118.127 26.0292 123.878C24.3587 124.681 23.6198 126.673 24.4229 128.343C25.2261 130.014 27.2179 130.753 28.8884 129.95C40.0362 124.681 53.2079 119.605 66.5081 122.015C76.0816 123.749 82.0892 127.123 87.39 130.078C90.8596 132.038 94.1686 133.869 98.0237 135.058C101.782 136.214 105.734 136.503 109.204 136.761C111.677 136.953 115.34 137.21 116.175 137.885C116.175 137.917 116.175 137.981 116.175 138.046C116.143 139.363 115.725 140.294 114.794 141.065C112.641 142.832 105.959 145.242 85.4303 141.419C83.6955 141.098 81.9928 142.19 81.5431 143.892C81.1254 145.627 82.0892 147.362 83.7919 147.908C107.212 155.361 145.859 142.64 147.498 142.093C149.747 141.355 151.514 141.804 152.253 143.282C152.734 144.246 152.702 145.659 151.224 146.687C148.237 148.711 116.464 166.638 96.5138 166.67C96.4495 166.67 96.4174 166.67 96.3532 166.67C82.6353 166.67 72.2265 162.654 63.0385 159.12C57.2236 156.871 51.698 154.751 45.9795 153.852C38.4299 152.663 29.2097 152.567 20.7284 153.627C15.5561 154.269 6.20746 155.908 1.83832 159.763C0.424771 160.984 0.296267 163.104 1.51706 164.517C2.73785 165.899 4.85816 166.059 6.27171 164.839C10.7051 160.951 29.8201 158.156 44.9194 160.534C49.931 161.337 55.1033 163.329 60.5969 165.449C70.3311 169.208 81.3503 173.448 96.3211 173.448C96.3853 173.448 96.4174 173.448 96.4817 173.448C118.231 173.416 151.289 154.815 154.983 152.31C159.095 149.547 160.445 144.631 158.324 140.359Z" fill="#3D302B"/>
<path d="M35.7956 65.4408C36.6951 65.4408 37.5625 65.0874 38.2372 64.3806L50.0917 51.8514V101.84C50.0917 103.093 51.1197 104.121 52.3727 104.121H125.459C126.712 104.121 127.74 103.093 127.74 101.84V51.8514L139.595 64.3806C140.88 65.7299 143 65.7941 144.35 64.5091C145.699 63.2241 145.763 61.1038 144.478 59.7545L126.584 40.8643C126.937 40.9928 127.355 41.0892 127.773 41.0892C129.636 41.0892 131.146 39.5793 131.146 37.716V3.37324C131.146 1.50992 129.636 0 127.773 0H109.461C107.597 0 106.087 1.50992 106.087 3.37324V18.3761C106.087 18.7295 106.152 19.0507 106.248 19.372L94.0723 6.52157C92.723 5.10802 90.8597 4.30486 88.9 4.30486C86.9724 4.30486 85.077 5.10802 83.7277 6.52157L33.354 59.7223C32.069 61.0716 32.1332 63.1919 33.4825 64.477C34.1251 65.1516 34.9603 65.4408 35.7956 65.4408ZM109.429 21.7814C111.292 21.7814 112.802 20.2715 112.802 18.4082V6.74647H124.367V37.716C124.367 38.0693 124.431 38.3906 124.528 38.7119L108.272 21.5566C108.625 21.6851 109.011 21.7814 109.429 21.7814Z" fill="#ED514E"/>
</svg>
