<svg width="44" height="42" viewBox="0 0 44 42" fill="none" xmlns="http://www.w3.org/2000/svg">
<path d="M42.3425 13.0495L37.2196 9.29319V1.58194H31.4945V5.09593L24.8479 0.222009C24.4434 -0.0741317 23.9016 -0.0733045 23.4979 0.222009L6.00323 13.0495C5.38447 13.5037 5.01885 14.2035 5.00065 14.9712C4.98328 15.7388 5.31499 16.4552 5.91223 16.9374L5.94863 16.9664C6.39863 17.3295 6.94376 17.5115 7.48972 17.5115C7.79 17.5115 8.09028 17.4544 8.37484 17.3444V35.4131C8.37484 35.7904 8.6809 36.0956 9.05728 36.0956H35.4618L38.4952 41.3583C38.7301 41.7694 39.1611 42.0002 39.6045 42.0002C39.8187 42.0002 40.0363 41.9456 40.2356 41.8323L41.4351 41.1465C41.7304 40.9778 41.9422 40.7032 42.0323 40.3756C42.1225 40.0472 42.0787 39.7031 41.9091 39.4069C40.9048 37.6516 39.2024 34.7067 38.6424 33.7372C41.6105 30.957 42.1605 26.5008 39.9701 23.0588V17.3444C40.7733 17.6554 41.6998 17.5289 42.3963 16.9672L42.4335 16.9374C43.0308 16.4552 43.3625 15.7388 43.3451 14.9712C43.3277 14.2035 42.9613 13.5037 42.3425 13.0495ZM9.74056 34.7307V16.4378L24.1729 5.62699L38.6052 16.437V21.4184C36.0822 19.0791 32.2539 18.4611 29.0865 20.0527C26.9895 21.1066 25.4625 22.9198 24.7875 25.1582C24.1125 27.3983 24.3797 29.7501 25.5403 31.7809C26.2467 33.0167 27.2302 34.0127 28.3726 34.7307H9.74056ZM35.7695 32.6767C32.962 34.2824 29.3851 33.3087 27.7795 30.5012C26.1739 27.6936 27.1484 24.1168 29.9551 22.5112C32.7626 20.9056 36.3395 21.8792 37.9451 24.6867C39.5507 27.4943 38.5762 31.0711 35.7695 32.6767Z" fill="#3D302B"/>
<path d="M13.8487 24.9641C15.9737 22.8148 15.9737 19.3302 13.8487 17.1809C11.7237 15.0316 8.27836 15.0316 6.15336 17.1809C4.02836 19.3302 4.02836 22.8148 6.15336 24.9641C8.27836 27.1133 11.7237 27.1133 13.8487 24.9641Z" fill="#ED514E" stroke="white"/>
<path d="M0.5 40.0002V40.5002H1H4.07143H4.57143V40.0002V33.9456C4.57143 33.9178 4.58296 33.8813 4.62362 33.8448C4.66507 33.8075 4.73159 33.7769 4.81583 33.7769C4.90007 33.7769 4.96659 33.8075 5.00804 33.8448C5.0487 33.8813 5.06023 33.9178 5.06023 33.9456V40.0002V40.5002H5.56023H14.4398H14.9398V40.0002V33.9456C14.9398 33.9178 14.9513 33.8813 14.992 33.8448C15.0334 33.8075 15.0999 33.7769 15.1842 33.7769C15.2684 33.7769 15.3349 33.8075 15.3764 33.8448C15.417 33.8813 15.4286 33.9178 15.4286 33.9456V40.0002V40.5002H15.9286H19H19.5V40.0002V33.9691C19.5 29.7946 15.7504 26.5002 11.242 26.5002H8.75798C4.24857 26.5002 0.5 29.7955 0.5 33.9691V40.0002Z" fill="#ED514E" stroke="white"/>
<path d="M30.6607 23.7461C29.6333 24.3343 28.8955 25.2872 28.5844 26.4296C28.2734 27.572 28.4256 28.7673 29.0138 29.7955C29.1395 30.0156 29.3695 30.1396 29.606 30.1396C29.721 30.1396 29.8377 30.1107 29.9444 30.0495C30.2711 29.8625 30.3844 29.4456 30.1975 29.118C29.7905 28.4066 29.6854 27.5794 29.9005 26.7886C30.1156 25.9978 30.626 25.3385 31.3382 24.9315C31.665 24.7446 31.7783 24.3277 31.5913 24.0001C31.4044 23.6725 30.9883 23.5592 30.6599 23.7461H30.6607Z" fill="#3D302B"/>
</svg>
