<svg width="42" height="37" viewBox="0 0 42 37" fill="none" xmlns="http://www.w3.org/2000/svg">
<path d="M41.7376 10.0885L32.0307 2.50371C31.9165 2.41429 31.7807 2.36875 31.6433 2.3613C30.6804 0.937234 29.051 0 27.2063 0C25.0512 0 23.1154 1.28331 22.2759 3.26873C22.2676 3.2886 22.2602 3.30847 22.2544 3.32917C21.5274 3.14702 20.774 3.05181 20.0073 3.05181C14.9345 3.05181 10.8072 7.17911 10.8072 12.2528C10.8072 13.9691 11.2816 15.6374 12.1783 17.0888L0.041422 31.2094C0.00333655 31.2533 -0.00908263 31.3129 0.00664833 31.3684L1.3504 36.004C1.36365 36.0496 1.39511 36.0876 1.43734 36.1092C1.46135 36.1208 1.48784 36.1274 1.51434 36.1274C1.53421 36.1274 1.55408 36.1241 1.57312 36.1166L6.86783 34.1618C6.95476 34.1296 7.0003 34.0335 6.97049 33.9457L5.95129 31.0223L9.37816 31.3849C9.43529 31.3899 9.49324 31.3667 9.52967 31.3212C9.5661 31.2756 9.57687 31.2152 9.55782 31.1597L8.35647 27.6467L11.1119 28.2354C11.1707 28.2462 11.2361 28.2271 11.2775 28.1791L17.3455 21.0621C18.5907 21.4372 19.9287 21.5406 21.2203 21.3726V33.2817C21.2203 33.6585 21.5266 33.9648 21.9033 33.9648H41.3178C41.6945 33.9648 42.0009 33.6585 42.0009 33.2817V10.6267C42.0009 10.4164 41.904 10.2177 41.7384 10.0885H41.7376ZM27.2063 1.36611C28.5542 1.36611 29.7473 2.03923 30.4692 3.06671L26.7385 5.9819C25.8361 5.01155 24.749 4.25978 23.5526 3.76053C24.1868 2.305 25.6166 1.36694 27.2071 1.36694L27.2063 1.36611ZM40.6331 32.5979H22.5847V10.9603L24.2621 9.6497C24.2787 9.63811 24.2936 9.62569 24.3093 9.61327L31.0604 4.3376C31.1457 4.66133 31.1912 5.00162 31.1912 5.35184C31.1912 5.93885 31.067 6.50434 30.8211 7.03257C30.6621 7.37451 30.8103 7.78103 31.1523 7.93999C31.2458 7.98305 31.3435 8.00375 31.4404 8.00375C31.6979 8.00375 31.9446 7.8572 32.0605 7.60882C32.3909 6.89844 32.5581 6.13921 32.5581 5.35184C32.5581 5.09931 32.5391 4.85176 32.5051 4.60917L40.6331 10.9603V32.5987V32.5979Z" fill="#ED514E"/>
<path d="M32.0739 14.0576L25.3461 19.1039C25.303 19.1362 25.2773 19.1867 25.2773 19.2405V19.3208C25.2773 19.4152 25.3535 19.4914 25.4479 19.4914H27.6511V24.8267C27.6511 24.9211 27.7272 24.9972 27.8216 24.9972H30.9024C30.9968 24.9972 31.073 24.9211 31.073 24.8267V21.0595C31.073 20.4584 31.5623 19.9699 32.189 19.9699C32.8158 19.9699 33.2786 20.4593 33.2786 21.0595V24.8267C33.2786 24.9211 33.3548 24.9972 33.4492 24.9972H36.5299C36.6243 24.9972 36.7005 24.9211 36.7005 24.8267V19.4914H38.9037C38.9981 19.4914 39.0742 19.4152 39.0742 19.3208V19.2405C39.0742 19.1867 39.0486 19.1362 39.0055 19.1039L32.2776 14.0576C32.2172 14.0121 32.1336 14.0121 32.0731 14.0576H32.0739Z" fill="#3D302B"/>
</svg>
