<svg width="44" height="40" viewBox="0 0 44 40" fill="none" xmlns="http://www.w3.org/2000/svg">
<path d="M13.0588 4.45801L4.45752 9.49815V20.2477H10.5991L10.6116 13.1926H15.5453L15.5328 20.2477H21.6601V9.49815L13.0588 4.45801Z" fill="white"/>
<path d="M7.89336 1.81761H4.77246V7.09845H7.89336V1.81761Z" fill="white"/>
<path d="M24.3167 11.2009C24.0661 11.2009 23.8129 11.1356 23.5812 10.9969L13.0929 4.83116L3.18616 10.8484C2.4972 11.2618 1.60871 11.0291 1.20159 10.3312C0.79448 9.63331 1.02354 8.73408 1.7125 8.3216L12.3574 1.86416C12.8119 1.59215 13.3765 1.59215 13.831 1.86416L25.0557 8.47102C25.7447 8.8835 25.9737 9.78273 25.5666 10.4806C25.2964 10.9441 24.8132 11.2018 24.3176 11.2018L24.3167 11.2009Z" fill="#ED514E"/>
<path d="M7.87044 4.55897V1.94807H4.96875V6.51758" stroke="#3D302B" stroke-width="2" stroke-linecap="round" stroke-linejoin="round"/>
<path d="M4.96875 10.1082V20.1948H10.867V13.1397H15.7908V20.1948H21.689V10.1082" stroke="#3D302B" stroke-width="2" stroke-linecap="round" stroke-linejoin="round"/>
<path d="M24.1091 10.9539C23.8801 10.9539 23.6483 10.8949 23.4372 10.7696L13.3291 4.73271L3.33116 10.6739C2.70126 11.0479 1.88882 10.8376 1.5166 10.2068C1.14439 9.57691 1.35376 8.76447 1.98366 8.39226L12.6545 2.05382C13.0697 1.80866 13.5859 1.80866 14.002 2.05382L24.7838 8.48889C25.4137 8.86111 25.6231 9.67265 25.2508 10.3034C25.0039 10.7213 24.5619 10.9548 24.1082 10.9548L24.1091 10.9539Z" stroke="#3D302B" stroke-width="2" stroke-linecap="round" stroke-linejoin="round"/>
<path d="M10.6648 22.9408C10.6648 30.8487 17.9016 37.2649 26.8321 37.2649C28.9231 37.2649 32.5039 36.6449 34.3346 36.0069L40.9101 38.2393L39.6718 31.6486C41.7575 29.2372 43.0003 26.2174 43.0003 22.9399C43.0003 15.0267 36.5661 8.61224 27.6374 8.61224" stroke="#3D302B" stroke-width="2" stroke-linecap="round" stroke-linejoin="round"/>
<path d="M25.1169 17.7299H34.2354" stroke="#ED514E" stroke-width="2" stroke-linecap="round" stroke-linejoin="round"/>
<path d="M25.1169 22.8819H34.2354" stroke="#ED514E" stroke-width="2" stroke-linecap="round" stroke-linejoin="round"/>
<path d="M24.9084 28.0338H30.8908" stroke="#ED514E" stroke-width="2" stroke-linecap="round" stroke-linejoin="round"/>
</svg>
