<svg width="45" height="46" viewBox="0 0 45 46" fill="none" xmlns="http://www.w3.org/2000/svg">
<path d="M14.2395 34.3484L40.0363 34.3484C42.0663 34.3484 43.7119 32.7032 43.7119 30.6737V15.1241C43.7119 13.0947 42.0663 11.4495 40.0363 11.4495L14.2395 11.4495C12.2095 11.4495 10.5639 13.0947 10.5639 15.1241V30.6737C10.5639 32.7032 12.2095 34.3484 14.2395 34.3484Z" fill="white"/>
<path d="M4.13089 6.70991C5.59036 6.70991 6.7735 5.52678 6.7735 4.06731C6.7735 2.60783 5.59036 1.4247 4.13089 1.4247C2.67142 1.4247 1.48828 2.60783 1.48828 4.06731C1.48828 5.52678 2.67142 6.70991 4.13089 6.70991Z" fill="#ED514E"/>
<path d="M1.24561 44.1293H6.71087L5.06732 7.0377H2.88916L1.24561 44.1293Z" fill="#ED514E"/>
<path d="M26.7585 16.821L18.9673 21.3869V31.1254H24.5304L24.5415 24.7331H29.0105L28.9994 31.1254H34.5505V21.3869L26.7585 16.821Z" fill="white"/>
<path d="M22.079 14.4296H19.2517V19.2135H22.079V14.4296Z" fill="white"/>
<path d="M36.9577 22.9299C36.7306 22.9299 36.5016 22.8708 36.292 22.7452L26.7908 17.159L17.815 22.6104C17.1908 22.9853 16.3866 22.7748 16.0172 22.1423C15.6488 21.5098 15.8557 20.6954 16.4798 20.3214L26.1232 14.4711C26.535 14.2246 27.0466 14.2246 27.4575 14.4711L37.6262 20.4563C38.2504 20.8293 38.4582 21.6446 38.0888 22.2771C37.8441 22.6963 37.4065 22.9299 36.9568 22.9299H36.9577Z" fill="#ED514E"/>
<path d="M22.0164 16.966V14.6217H19.4116V18.7232" stroke="#3D302B" stroke-width="2" stroke-linecap="round" stroke-linejoin="round"/>
<path d="M19.4116 21.9466V31.0018H24.7061V24.6677H29.1261V31.0018H34.4206V21.9466" stroke="#3D302B" stroke-width="2" stroke-linecap="round" stroke-linejoin="round"/>
<path d="M36.5941 22.7056C36.3882 22.7056 36.1805 22.6529 35.9903 22.5403L26.9166 17.1212L17.9417 22.4544C17.3766 22.7896 16.6472 22.6012 16.3129 22.0352C15.9787 21.4692 16.167 20.7407 16.7321 20.4065L26.3118 14.7159C26.6848 14.4961 27.1483 14.4961 27.5214 14.7159L37.1999 20.4923C37.7659 20.8266 37.9533 21.5551 37.6191 22.1211C37.3975 22.4969 37.0004 22.7056 36.5941 22.7056Z" stroke="#3D302B" stroke-width="2" stroke-linecap="round" stroke-linejoin="round"/>
<path d="M13.863 34.4869L40.242 34.4869C42.3175 34.4869 44 32.8044 44 30.7289V14.8234C44 12.7479 42.3175 11.0654 40.242 11.0654L13.863 11.0654C11.7875 11.0654 10.105 12.7479 10.105 14.8234V30.7289C10.105 32.8044 11.7875 34.4869 13.863 34.4869Z" stroke="#3D302B" stroke-width="2" stroke-linecap="round" stroke-linejoin="round"/>
<path d="M1.51514 44.2743H6.98133L5.33778 7.18271H3.15869L1.51514 44.2743Z" stroke="#3D302B" stroke-width="2" stroke-linecap="round" stroke-linejoin="round"/>
<path d="M5.02148 7.10863C6.53027 6.75252 7.4647 5.24073 7.10859 3.73194C6.75249 2.22315 5.24069 1.28872 3.7319 1.64482C2.22311 2.00093 1.28868 3.51273 1.64479 5.02151C2.00089 6.5303 3.51269 7.46474 5.02148 7.10863Z" stroke="#3D302B" stroke-width="2" stroke-linecap="round" stroke-linejoin="round"/>
<path d="M4.37646 4.37669H43.8697V7.16334H11.405" stroke="#3D302B" stroke-width="2" stroke-linecap="round" stroke-linejoin="round"/>
<path d="M39.9297 11.0661V4.37643" stroke="#3D302B" stroke-width="2" stroke-linecap="round" stroke-linejoin="round"/>
<path d="M14.1758 11.0661V4.37643" stroke="#3D302B" stroke-width="2" stroke-linecap="round" stroke-linejoin="round"/>
</svg>
