<svg width="44" height="46" viewBox="0 0 44 46" fill="none" xmlns="http://www.w3.org/2000/svg">
<path d="M5.64245 19.8945V5.34171H1.39648V23.2155H14.1247C14.8693 23.2155 15.4747 22.61 15.4747 21.8655V20.3139H6.06179C5.82987 20.3139 5.64245 20.1262 5.64245 19.8945Z" fill="white"/>
<path d="M17.2352 6.04796H19.9354L15.886 2.16396V4.69824C15.886 5.44254 16.4914 6.04796 17.2352 6.04796Z" fill="#D6E0E7"/>
<path d="M17.2352 6.8869H17.2344C16.0279 6.8869 15.0463 5.90477 15.0463 4.69796V1.59982H6.48145V19.4752H15.8574C15.8705 19.4744 15.8812 19.4677 15.8944 19.4677C15.9075 19.4677 15.9182 19.4741 15.9311 19.4752H19.2089C19.9535 19.4752 20.5597 18.869 20.5597 18.1244V6.8869H17.2352Z" fill="white"/>
<path d="M30.1292 28.7001L21.4185 33.804V44.1398H27.6381L27.6504 36.3303H32.6468L32.6345 44.3085H38.8402V33.804L30.1292 28.7001Z" fill="white"/>
<path d="M41.531 35.5296C41.2773 35.5296 41.0205 35.4634 40.7864 35.3229L30.1648 29.0784L20.1304 35.1722C19.4327 35.5913 18.5332 35.3556 18.1208 34.6486C17.7087 33.9415 17.9406 33.031 18.6383 32.6135L29.4186 26.0733C29.879 25.7982 30.4503 25.7982 30.9107 26.0733L42.2782 32.7642C42.9761 33.1817 43.2081 34.0922 42.7957 34.7993C42.5219 35.2682 42.0329 35.5294 41.5307 35.5294L41.531 35.5296Z" fill="#ED514E"/>
<path d="M4.27783 31.2652L7.62908 27.9187L10.9782 31.2652" stroke="#ED514E" stroke-width="2" stroke-linecap="round" stroke-linejoin="round"/>
<path d="M7.54053 28.972V36.2719C7.54053 38.1364 9.05273 39.6494 10.918 39.6494H14.8141" stroke="#ED514E" stroke-width="2" stroke-linecap="round" stroke-linejoin="round"/>
<path d="M36.176 18.9196L32.8272 22.2663L29.4773 18.9196" stroke="#3D302B" stroke-width="2" stroke-linecap="round" stroke-linejoin="round"/>
<path d="M32.915 21.2117V13.0737C32.915 11.2084 31.4028 9.69537 29.5356 9.69537H25.6411" stroke="#3D302B" stroke-width="2" stroke-linecap="round" stroke-linejoin="round"/>
<path d="M24.7671 28.7101V26.1053H21.873V30.663" stroke="#3D302B" stroke-width="2" stroke-linecap="round" stroke-linejoin="round"/>
<path d="M21.873 34.2443V44.3056H27.7556V36.4652H32.6673V44.3056H38.5499V34.2443" stroke="#3D302B" stroke-width="2" stroke-linecap="round" stroke-linejoin="round"/>
<path d="M40.9644 35.0881C40.7359 35.0881 40.5048 35.0294 40.2938 34.9044L30.2114 28.883L20.2394 34.809C19.6112 35.1817 18.801 34.972 18.4296 34.3433C18.0585 33.7145 18.2671 32.9045 18.8959 32.5335L29.5398 26.2106C29.9543 25.9658 30.4691 25.9658 30.8836 26.2106L41.6379 32.6292C42.2664 33.0002 42.4753 33.8102 42.1042 34.439C41.8578 34.8562 41.417 35.0884 40.9649 35.0884L40.9644 35.0881Z" stroke="#3D302B" stroke-width="2" stroke-linecap="round" stroke-linejoin="round"/>
<path d="M9.84985 10.0228H17.3473" stroke="#3D302B" stroke-width="2" stroke-linecap="round" stroke-linejoin="round"/>
<path d="M9.84985 13.9885H12.097" stroke="#3D302B" stroke-width="2" stroke-linecap="round" stroke-linejoin="round"/>
<path d="M15.6623 13.9885H15.6606" stroke="#3D302B" stroke-width="2" stroke-linecap="round" stroke-linejoin="round"/>
<path d="M21.0018 6.57712L15.4895 1.29085V4.8086C15.4895 5.78188 16.2858 6.57739 17.2583 6.57739H21.0021L21.0018 6.57712Z" stroke="#3D302B" stroke-width="2" stroke-linecap="round" stroke-linejoin="round"/>
<path d="M5.81277 5.03221H1V23.7446H14.1476C15.1209 23.7446 15.9172 22.9491 15.9172 21.9753V19.9969" stroke="#ED514E" stroke-width="2" stroke-linecap="round" stroke-linejoin="round"/>
<path d="M15.4885 4.80752V1.29004H6.08496V20.0041H19.2317C20.205 20.0041 21.0021 19.207 21.0021 18.2337V6.57712H17.2576C16.2859 6.57712 15.4888 5.7808 15.4888 4.80752H15.4885Z" stroke="#3D302B" stroke-width="2" stroke-linecap="round" stroke-linejoin="round"/>
</svg>
