<svg width="38" height="42" viewBox="0 0 38 42" fill="none" xmlns="http://www.w3.org/2000/svg">
<path d="M9.87499 8.26396H13.0801V12.937C13.0801 13.061 13.1805 13.1614 13.3045 13.1614H24.5281C24.6521 13.1614 24.7525 13.061 24.7525 12.937V8.26396H27.9576C28.0514 8.26396 28.1355 8.20603 28.1681 8.1179C28.2008 8.02978 28.1755 7.93105 28.1045 7.86985L25.5611 5.67164L25.5725 2.07404C25.5725 2.01448 25.5497 1.95736 25.5073 1.91493C25.4648 1.8725 25.4077 1.84884 25.3482 1.84884H22.7199C22.5959 1.84884 22.4955 1.9492 22.4955 2.07323V3.0222L19.0636 0.0545268C18.9795 -0.0180942 18.8539 -0.0180942 18.7698 0.0545268L9.72811 7.86985C9.65712 7.93105 9.63183 8.02978 9.66447 8.1179C9.69711 8.20603 9.78115 8.26396 9.87499 8.26396ZM21.6812 11.2577H19.5899V9.54095H21.6812V11.2577ZM21.6812 6.477V8.19379H19.5899V6.477H21.6812ZM16.1522 6.477H18.2435V8.19379H16.1522V6.477ZM16.1522 9.54013H18.2435V11.2569H16.1522V9.54013Z" fill="#ED514E"/>
<path d="M37.2703 25.3194L27.0625 13.5173C26.9817 13.4242 26.8414 13.4145 26.7476 13.4928L23.5898 16.1634C23.5449 16.2018 23.5163 16.2565 23.5114 16.316C23.5065 16.3756 23.5253 16.4343 23.5637 16.4792L24.5624 17.6599L23.5938 18.4816C22.5266 18.2964 21.3581 18.2621 20.117 18.3812C19.0685 18.4816 17.6308 19.256 16.2502 20.209L13.4122 17.5922L14.0462 16.8897C14.0862 16.8456 14.1066 16.7877 14.1033 16.7281C14.1001 16.6685 14.074 16.613 14.0299 16.5731L10.9611 13.8012C10.8697 13.7188 10.7293 13.7253 10.6461 13.8151L0.059756 25.2794C0.0189577 25.3235 -0.00225741 25.3822 0.000190491 25.4418C0.00263839 25.5022 0.0287493 25.5585 0.0736274 25.5985L3.2714 28.4862C3.31464 28.5253 3.3685 28.5441 3.42154 28.5441C3.48273 28.5441 3.54393 28.5188 3.58799 28.4698L4.61203 27.3357L7.73555 30.2087L6.99383 31.0197C6.56137 31.4914 6.33943 32.1042 6.36717 32.7431C6.39573 33.3828 6.67153 33.9727 7.1456 34.4068L7.1709 34.4288C7.6156 34.836 8.18515 35.0563 8.78488 35.0563C8.82078 35.0563 8.8575 35.0555 8.8934 35.0539C8.90728 35.0539 8.92115 35.0522 8.93502 35.0514C8.93502 35.0653 8.93502 35.0792 8.93583 35.093C8.96439 35.7328 9.24019 36.3227 9.71019 36.7527L9.73548 36.7764L9.73711 36.778C10.1965 37.1982 10.7758 37.4055 11.3535 37.4055C11.4033 37.4055 11.4531 37.403 11.5029 37.4006C11.5192 38.0281 11.7795 38.6474 12.2772 39.1027L12.3025 39.1264L12.3041 39.128C12.7635 39.5482 13.3429 39.7555 13.9214 39.7555C14.0821 39.7555 14.2429 39.7392 14.4004 39.7073C14.4779 40.232 14.7292 40.7346 15.1494 41.1189L15.1747 41.1426L15.1763 41.1442C15.6357 41.5645 16.2151 41.7717 16.7928 41.7717C17.4423 41.7717 18.0893 41.5098 18.5618 40.9941L19.5042 39.9644L21.9121 41.6102C22.2932 41.8729 22.7281 42.0002 23.1589 42.0002C23.8313 42.0002 24.4979 41.6909 24.9451 41.101C25.2062 40.7558 25.3571 40.3536 25.3873 39.9333C26.1225 40.0101 26.8797 39.713 27.3783 39.0741C27.7112 38.6474 27.872 38.1284 27.8401 37.5956C27.9568 37.5915 28.0735 37.5793 28.191 37.5589C28.8666 37.4406 29.4541 37.0644 29.8662 36.4688C30.2464 35.9196 30.3941 35.2587 30.284 34.6018C31.0738 34.5521 31.84 34.149 32.3296 33.4342C32.7351 32.8434 32.882 32.1303 32.7416 31.4277C32.6021 30.7244 32.1941 30.1222 31.5928 29.7313C31.3618 29.5812 31.1105 29.418 30.8421 29.2442L32.8942 27.5111L33.6392 28.3923C33.6833 28.4445 33.7469 28.4715 33.8106 28.4715C33.862 28.4715 33.9134 28.4543 33.9558 28.4184L37.2458 25.636C37.2915 25.5968 37.32 25.5422 37.3241 25.4818C37.329 25.4222 37.3094 25.3626 37.2703 25.3178V25.3194ZM8.83384 33.7092C8.55315 33.7214 8.28551 33.6243 8.07907 33.435L8.05296 33.4113C7.8457 33.222 7.72494 32.9634 7.7127 32.6835C7.70046 32.4036 7.79756 32.1352 7.98687 31.9287L10.4217 29.2687C10.6257 29.0459 10.9039 28.9317 11.1879 28.9317C11.4482 28.9317 11.7142 29.028 11.9304 29.2262C12.3572 29.6171 12.3866 30.2821 11.9957 30.7097L9.56086 33.3697C9.37156 33.577 9.1129 33.6969 8.83302 33.71L8.83384 33.7092ZM10.6461 35.785L10.6208 35.7613C10.4135 35.572 10.2928 35.3134 10.2805 35.0335C10.2683 34.7536 10.3654 34.4851 10.5547 34.2787L12.6534 31.9858C12.8427 31.7786 13.1013 31.6586 13.3812 31.6456C13.3967 31.6456 13.413 31.6448 13.4285 31.6448C13.6921 31.6448 13.9434 31.7427 14.1621 31.9434C14.3694 32.1327 14.4901 32.3914 14.5024 32.6713C14.5146 32.9511 14.4175 33.2196 14.2282 33.426L12.1295 35.7189C11.9402 35.9261 11.6816 36.0461 11.4017 36.0591C11.1112 36.0673 10.8525 35.9743 10.6461 35.785ZM13.2139 38.135L13.1886 38.1113C12.9814 37.922 12.8606 37.6633 12.8484 37.3835C12.8362 37.1036 12.9333 36.8351 13.1226 36.6279L15.1608 34.4011C15.3501 34.1938 15.6088 34.0739 15.8887 34.0608C15.9042 34.0608 15.9205 34.06 15.936 34.06C16.1987 34.06 16.4501 34.1579 16.6696 34.3587C17.0963 34.7495 17.1257 35.4153 16.7357 35.8421L16.2983 36.3203L15.0034 37.7351C15.0034 37.7351 15.0009 37.7384 14.9993 37.74L14.6982 38.0689C14.3073 38.4964 13.6423 38.5258 13.2148 38.1341L13.2139 38.135ZM17.5704 40.0859C17.1795 40.5135 16.5145 40.5421 16.087 40.1512L16.0617 40.1276C15.8544 39.9382 15.7336 39.6796 15.7214 39.3997C15.7092 39.1206 15.8063 38.853 15.9939 38.6466L16.7144 37.8592L17.6373 36.8514C17.8266 36.6442 18.0853 36.5242 18.3651 36.5112C18.3806 36.5112 18.397 36.5104 18.4125 36.5104C18.6752 36.5104 18.9265 36.6083 19.146 36.8098C19.3533 36.9991 19.4732 37.2578 19.4855 37.5377C19.4977 37.8176 19.4006 38.086 19.2113 38.2924L17.5704 40.0859ZM31.4214 31.6905C31.4899 32.034 31.4181 32.3832 31.1978 32.7055C30.8005 33.2849 30.0016 33.4391 29.4174 33.049L27.078 31.4873C26.7696 31.2817 26.3518 31.3641 26.1446 31.6725C25.9373 31.9809 26.0197 32.3987 26.3281 32.606L28.4423 34.0274C28.7108 34.2077 28.8911 34.4819 28.9515 34.7993C29.0119 35.1167 28.9433 35.4374 28.7377 35.7344C28.5533 35.9996 28.2767 36.1775 27.9593 36.2329C27.641 36.2892 27.322 36.2166 27.0584 36.029L26.9271 35.9359C26.9271 35.9359 26.923 35.9327 26.9205 35.931L25.2609 34.7495C24.9573 34.5349 24.5371 34.6051 24.3225 34.9078C24.1071 35.2105 24.1773 35.6308 24.48 35.8462L26.1437 37.0301C26.3322 37.1664 26.4554 37.368 26.4889 37.5989C26.5232 37.8314 26.462 38.0607 26.2988 38.2704C26.0181 38.6319 25.5057 38.707 25.1328 38.4418L23.3254 37.1583C23.0227 36.9428 22.6016 37.0138 22.387 37.3174C22.1716 37.6201 22.2426 38.0403 22.5453 38.2557L23.6852 39.066C23.877 39.2022 24.0018 39.4046 24.0377 39.6372C24.0736 39.8697 24.0149 40.1006 23.8541 40.3128C23.5759 40.6816 23.0594 40.7648 22.6759 40.5004L20.4051 38.9493C20.7037 38.5209 20.8538 38.0093 20.8302 37.4781C20.8024 36.8384 20.5266 36.2484 20.0289 35.7931C19.554 35.3582 18.9502 35.1526 18.3521 35.1673C18.3586 34.5039 18.091 33.8365 17.5524 33.3436C17.0857 32.916 16.4868 32.6949 15.8495 32.7169C15.8495 32.6819 15.8495 32.6468 15.8471 32.6117C15.8185 31.972 15.5427 31.382 15.0458 30.9267C14.6419 30.5571 14.1335 30.3425 13.595 30.305C13.6872 29.5559 13.4253 28.7701 12.8141 28.2095C11.839 27.3185 10.3213 27.3846 9.42868 28.3597L8.64453 29.2156L5.51449 26.3369L12.5089 18.5926L15.1413 21.0193C14.1042 21.8181 13.1772 22.6438 12.5799 23.2542C11.9712 23.876 11.808 24.7588 12.1524 25.5577C12.4918 26.3443 13.2286 26.8273 14.0805 26.8273C14.0944 26.8273 14.1082 26.8273 14.1221 26.8273C17.3174 26.7686 19.678 25.0199 20.5348 24.2823C24.1356 26.5099 28.5198 29.3421 30.8584 30.8623C31.1521 31.0532 31.3521 31.3486 31.4206 31.6921L31.4214 31.6905ZM29.6606 28.4796C27.1425 26.8526 23.7326 24.6691 20.884 22.9131C20.751 22.8307 20.6001 22.8013 20.4565 22.8176C20.2663 22.803 20.0713 22.8682 19.9269 23.0143C19.9024 23.038 17.5027 25.4165 14.0993 25.4793C13.6219 25.4793 13.4367 25.1317 13.3902 25.0224C13.3429 24.913 13.2148 24.5304 13.5436 24.1942C15.1894 22.5108 18.7013 19.8687 20.2451 19.7211C21.4789 19.6036 22.6245 19.6509 23.6485 19.8614C23.8541 19.9022 24.063 19.8492 24.2205 19.7153L25.4322 18.6872L32.026 26.483L29.6622 28.4788L29.6606 28.4796Z" fill="#3D302B"/>
</svg>
