<svg width="140" height="90" viewBox="0 0 140 90" fill="none" xmlns="http://www.w3.org/2000/svg">
<path d="M72.6054 46.2121L44.4333 26.2426C43.875 25.8404 43.5028 25.1779 43.5028 24.4208C43.5028 21.2029 43.5028 18.3637 43.5028 16.1159C43.5028 14.1521 43.4795 12.6378 43.433 11.786C43.2701 7.88203 40.0598 5.58696 38.5011 4.68786C36.9425 5.58696 33.7321 7.88203 33.5693 11.786C33.546 12.6378 33.5227 14.1284 33.4995 16.1159C33.4762 18.3163 33.4995 21.1083 33.4995 24.2551C33.5692 25.0123 33.2203 25.7931 32.5689 26.2663L4.39681 46.2358V55.5817L30.7078 45.6443C30.9405 45.5496 31.1964 45.5023 31.4523 45.5023C32.662 45.5023 33.639 46.4724 33.639 47.7027C33.7088 57.2143 33.8019 65.1642 33.8252 66.3709C33.8949 67.0807 33.6158 67.8142 33.0342 68.2874L23.5194 76.2137L23.5659 83.0279L37.5938 76.5686C38.1522 76.3083 38.8035 76.3083 39.3851 76.5686L53.413 83.0279L53.4596 76.2137L43.9448 68.2637C43.4562 67.8378 43.1306 67.199 43.1538 66.5128C43.1538 66.4892 43.2469 58.0424 43.3399 47.75C43.3399 47.4898 43.3865 47.2058 43.4795 46.9219C43.8983 45.7862 45.1545 45.1947 46.2944 45.6206L72.6054 55.558V46.2121ZM47.8531 23.2614L76.0484 43.2309C76.6533 43.6568 76.979 44.3429 76.979 45.0527V58.7522C76.979 59.9825 76.0019 60.9763 74.7922 60.9763C74.4665 60.9763 74.1408 60.9053 73.8617 60.7633L47.6902 50.8732C47.6204 57.6401 47.5739 63.224 47.5506 65.4718L57.0654 73.3981C57.647 73.8713 57.9262 74.6048 57.8564 75.3146L57.7633 86.435C57.7633 87.6654 56.763 88.6355 55.5765 88.6355C55.2741 88.6355 54.9717 88.5645 54.6925 88.4462L38.5011 80.9931L22.3097 88.4462C21.2163 88.943 19.9136 88.4462 19.425 87.3341C19.2854 87.0029 19.2157 86.6243 19.2389 86.2931L19.1459 75.1489C19.1459 74.4391 19.4483 73.824 19.9368 73.4217L29.4516 65.4954C29.4283 63.224 29.3818 57.6638 29.312 50.8969L2.95447 60.858C1.81455 61.2839 0.558322 60.6924 0.139579 59.5567C0.0465249 59.2964 0 59.0361 0 58.7759V45.0764C0 44.2956 0.418745 43.5858 1.0236 43.1836L29.1259 23.2614C29.1259 20.5168 29.1259 18.0797 29.1259 16.0922C29.1259 14.0101 29.1492 12.4485 29.1957 11.6204C29.5214 3.6468 37.6171 0.192358 37.6404 0.168698C38.1987 -0.0679075 38.8035 -0.0442469 39.3386 0.168698C39.3619 0.168698 47.4576 3.62314 47.7833 11.6204C47.8065 12.4485 47.8298 14.0101 47.8531 16.0922C47.8531 18.0561 47.8531 20.5168 47.8531 23.2614Z" fill="#ED514E"/>
<path d="M104.028 82.5034H102.258V84.0266C102.258 84.142 102.326 84.2574 102.44 84.3728C102.598 84.5343 102.871 84.6267 103.143 84.6267C103.438 84.6267 103.688 84.5343 103.846 84.3728C103.96 84.2805 104.028 84.142 104.028 84.0266V82.5034ZM126.628 82.5034H124.858V84.0266C124.858 84.142 124.926 84.2574 125.039 84.3728C125.198 84.5343 125.471 84.6267 125.743 84.6267C126.038 84.6267 126.287 84.5343 126.446 84.3728C126.56 84.2805 126.628 84.142 126.628 84.0266V82.5034ZM105.571 4.36175V23.7702H123.338V4.36175H105.571ZM93.7944 41.8633H135.091V32.8398C135.091 31.5475 134.57 30.3474 133.73 29.4935C132.89 28.6397 131.733 28.1089 130.44 28.1089H98.4687C97.2207 28.1089 96.1089 28.5935 95.2693 29.4013L95.1786 29.4935C94.339 30.3474 93.8171 31.5475 93.8171 32.8398V41.8633H93.7944ZM135.091 64.3873H93.7944V73.4108C93.7944 74.7262 94.3163 75.9032 95.1559 76.7571C95.9954 77.611 97.1526 78.1417 98.446 78.1417H130.394C131.688 78.1417 132.845 77.611 133.685 76.7571C134.524 75.9032 135.046 74.7262 135.046 73.4108V64.3873H135.091ZM93.7944 60.0487H135.091V46.225H93.7944V60.0487ZM98.4687 23.7472H101.305V2.16936C101.305 0.969305 102.258 5.80258e-10 103.438 5.80258e-10H125.471C126.65 5.80258e-10 127.603 0.969305 127.603 2.16936V23.7472H130.44C132.89 23.7472 135.114 24.7626 136.748 26.4242C138.359 28.0627 139.38 30.3474 139.38 32.8398V73.4569C139.38 75.9493 138.382 78.211 136.748 79.8726L136.725 79.8957C135.205 81.4419 133.163 82.4112 130.894 82.5496V84.0727C130.894 85.4805 130.281 86.7267 129.305 87.6498C128.375 88.5037 127.127 89.0115 125.743 89.0115C124.359 89.0115 123.111 88.4806 122.18 87.6498C121.205 86.7498 120.592 85.4805 120.592 84.0727V82.5496H108.316V84.0727C108.316 85.4805 107.704 86.7498 106.728 87.6498C105.798 88.5037 104.55 89.0115 103.166 89.0115C101.782 89.0115 100.534 88.4806 99.6032 87.6498C98.6275 86.7498 98.0149 85.4805 98.0149 84.0727V82.5496C95.7458 82.4342 93.7037 81.4419 92.1834 79.8957L92.1607 79.8726C90.5497 78.2341 89.5513 75.9494 89.5513 73.48V32.8168C89.5513 30.3244 90.5497 28.0397 92.1834 26.4011L92.3195 26.2857C93.9079 24.7164 96.0862 23.7472 98.4687 23.7472Z" fill="#3D302B"/>
</svg>
