<svg width="44" height="41" viewBox="0 0 44 41" fill="none" xmlns="http://www.w3.org/2000/svg">
<path d="M23.8488 17.2779H16.189V29.5045H23.8488V17.2779Z" fill="#F4F4F4"/>
<path d="M20.0387 4.37877L6.70532 12.8963V29.874H16.2257V17.4795H23.8737V29.7408H33.3721V12.8963L20.0387 4.37877Z" fill="white"/>
<path d="M11.8149 1H6.85669V9.55955H11.8149V1Z" fill="white"/>
<path d="M37.3101 15.5989C36.9378 15.5989 36.56 15.5022 36.2161 15.296L19.8643 5.7118L4.25166 14.7923C3.22699 15.4073 1.90579 15.0615 1.29993 14.0241C0.694076 12.9866 1.03533 11.6508 2.05999 11.0386L18.7676 1.30291C19.4437 0.899619 20.2831 0.899619 20.9592 1.30291L38.4077 11.5423C39.4333 12.1545 39.7736 13.4903 39.1678 14.5277C38.7654 15.2157 38.0473 15.5989 37.3092 15.5989H37.3101Z" fill="#ED514E"/>
<path d="M23.2002 37.2994C23.2002 37.2994 26.1364 37.1534 26.3864 37.5978C27.2441 39.1188 28.9129 39.2146 28.9129 39.2146H40.1332C41.187 39.2146 42.0484 38.3533 42.0484 37.2994C42.0484 36.2455 41.187 35.3851 40.1332 35.3851H40.6094C41.6633 35.3851 42.5237 34.5238 42.5237 33.4708C42.5237 32.4179 41.6624 31.5556 40.6094 31.5556H41.0857C42.1387 31.5556 43 30.6934 43 29.6413C43 28.5893 42.1387 27.7271 41.0857 27.7271C42.1387 27.7271 43 26.8648 43 25.8128C43 24.7607 42.1387 23.8985 41.0857 23.8985L36.2389 23.9322C34.4131 23.9322 34.4323 22.4504 34.4323 22.4504L34.3657 18.3983C34.3657 18.3983 34.4186 15.7769 31.9386 15.5579C29.6867 15.3608 29.9413 16.3235 29.9413 16.3235C29.9413 16.3235 29.9914 18.704 29.9248 19.9175C29.8537 21.236 29.2569 21.6201 29.2569 21.6201C29.2569 21.6201 26.8362 22.8455 26.0315 25.5299C25.5844 27.0217 24.7066 27.3155 24.7066 27.3155H23.2367L23.2002 37.3012V37.2994Z" fill="white"/>
<path d="M11.5283 5.1853V1.12314H7.01538V8.23009" stroke="#3D302B" stroke-width="2" stroke-linecap="round" stroke-linejoin="round"/>
<path d="M7.01538 13.8151V29.5053H16.189V17.2787H23.8489V26.2004" stroke="#3D302B" stroke-width="2" stroke-linecap="round" stroke-linejoin="round"/>
<path d="M37.4049 15.3325C37.0491 15.3325 36.6878 15.2403 36.3593 15.046L20.0185 5.45447L4.46788 14.6956C3.48793 15.2768 2.22512 14.9502 1.64572 13.9693C1.06724 12.9884 1.39298 11.7256 2.37293 11.1471L18.971 1.28738C19.617 0.905986 20.42 0.905986 21.066 1.28738L38.4542 11.4984C39.4342 12.0769 39.7599 13.3406 39.1814 14.3206C38.7973 14.9712 38.1102 15.3334 37.4049 15.3334V15.3325Z" stroke="#3D302B" stroke-width="2" stroke-linecap="round" stroke-linejoin="round"/>
<path d="M25.6454 37.2998C25.6454 37.2998 26.118 37.1538 26.368 37.5981C27.2257 39.1192 28.8946 39.215 28.8946 39.215H40.1148C41.1686 39.215 42.03 38.3536 42.03 37.2998C42.03 36.2459 41.1686 35.3855 40.1148 35.3855H37.851H40.592C41.6458 35.3855 42.5063 34.5241 42.5063 33.4712C42.5063 32.4182 41.6449 31.556 40.592 31.556H38.4615H41.0683C42.1212 31.556 42.9826 30.6937 42.9826 29.6417C42.9826 28.5897 42.1212 27.7274 41.0683 27.7274M41.0683 27.7274H38.9934M41.0683 27.7274C42.1212 27.7274 42.9826 26.8652 42.9826 25.8131C42.9826 24.7611 42.1212 23.8988 41.0683 23.8988L36.2214 23.9326C34.3956 23.9326 34.4148 22.4508 34.4148 22.4508L34.3482 18.3987C34.3482 18.3987 34.4011 15.7773 31.9211 15.5583C29.6692 15.3612 29.9238 16.3238 29.9238 16.3238C29.9238 16.3238 29.974 18.7044 29.9074 19.9179C29.8362 21.2364 29.2395 21.6205 29.2395 21.6205C29.2395 21.6205 26.8188 22.8459 26.014 25.5303C25.5669 27.0221 24.6892 27.3159 24.6892 27.3159H23.2192" stroke="#ED514E" stroke-width="2" stroke-linecap="round" stroke-linejoin="round"/>
<path d="M22.8296 25.8768H16.9873V38.827H22.8296V25.8768Z" fill="#3D302B"/>
<path d="M22.8296 25.877H16.9873V38.8272H22.8296V25.877Z" stroke="#3D302B" stroke-width="2" stroke-linecap="round" stroke-linejoin="round"/>
<circle cx="19.9081" cy="36.6464" r="0.821191" fill="white"/>
</svg>
