<svg width="109" height="65" viewBox="0 0 109 65" fill="none" xmlns="http://www.w3.org/2000/svg">
<path d="M17.7055 3H3V52.0035H17.7055V3Z" stroke="#ED514E" stroke-width="5" stroke-linecap="round" stroke-linejoin="round"/>
<path d="M17.7056 7.90039H44.6656" stroke="#ED514E" stroke-width="5" stroke-linecap="round" stroke-linejoin="round"/>
<path d="M17.7056 42.2028H25.0583L37.3129 61.8042H49.5674" stroke="#ED514E" stroke-width="5" stroke-linecap="round" stroke-linejoin="round"/>
<path d="M42.2146 47.1031L49.5673 61.8042H61.8219" stroke="#ED514E" stroke-width="5" stroke-linecap="round" stroke-linejoin="round"/>
<path d="M54.4692 44.653L61.822 61.8042L71.5 57L80.5 51L73 56L64.5 40.5" stroke="#ED514E" stroke-width="5" stroke-linecap="round" stroke-linejoin="round"/>
<path d="M81.4292 49.5534L66.7237 22.6014L56.9201 17.7011L49.1445 25.4742C45.315 29.3026 39.108 29.3026 35.2785 25.4742L32.4048 22.6014L49.5612 3H74.0703L91.2267 12.8007" stroke="#3D302B" stroke-width="5" stroke-linecap="round" stroke-linejoin="round"/>
<path d="M78.9783 42.2028H91.2328" stroke="#ED514E" stroke-width="5" stroke-linecap="round" stroke-linejoin="round"/>
<path d="M105.938 3H91.2329V52.0035H105.938V3Z" stroke="#3D302B" stroke-width="5" stroke-linecap="round" stroke-linejoin="round"/>
</svg>
