<svg width="109" height="109" viewBox="0 0 109 109" fill="none" xmlns="http://www.w3.org/2000/svg">
<path d="M61.8219 59.3541C61.8219 55.2945 58.53 52.0035 54.4692 52.0035C50.4084 52.0035 47.1165 55.2945 47.1165 59.3541V64.2544C47.1165 68.314 50.4084 71.605 54.4692 71.605C58.53 71.605 61.8219 68.314 61.8219 64.2544V59.3541Z" stroke="#ED514E" stroke-width="5" stroke-linecap="round" stroke-linejoin="round"/>
<path d="M54.4692 81.4056C63.9359 81.4056 71.6256 89.0931 71.6256 98.5569V105.907H37.3127V98.5569C37.3127 89.0931 45.0026 81.4056 54.4692 81.4056Z" stroke="#3D302B" stroke-width="5" stroke-linecap="round" stroke-linejoin="round"/>
<path d="M27.5092 10.3505C27.5092 6.29094 24.2173 3 20.1565 3C16.0956 3 12.8037 6.29094 12.8037 10.3505V15.2509C12.8037 19.3105 16.0956 22.6014 20.1565 22.6014C24.2173 22.6014 27.5092 19.3105 27.5092 15.2509V10.3505Z" stroke="#ED514E" stroke-width="5" stroke-linecap="round" stroke-linejoin="round"/>
<path d="M20.1564 32.4021C29.623 32.4021 37.3128 40.0895 37.3128 49.5533V56.9039H3V49.5533C3 40.0895 10.6897 32.4021 20.1564 32.4021Z" stroke="#3D302B" stroke-width="5" stroke-linecap="round" stroke-linejoin="round"/>
<path d="M96.1349 10.3505C96.1349 6.29094 92.843 3 88.7822 3C84.7214 3 81.4294 6.29094 81.4294 10.3505V15.2509C81.4294 19.3105 84.7214 22.6014 88.7822 22.6014C92.843 22.6014 96.1349 19.3105 96.1349 15.2509V10.3505Z" stroke="#ED514E" stroke-width="5" stroke-linecap="round" stroke-linejoin="round"/>
<path d="M88.7821 32.4021C98.2488 32.4021 105.939 40.0895 105.939 49.5533V56.9039H71.6257V49.5533C71.6257 40.0895 79.3155 32.4021 88.7821 32.4021Z" stroke="#3D302B" stroke-width="5" stroke-linecap="round" stroke-linejoin="round"/>
<path d="M18.4653 66.7046C19.8133 73.4181 22.9995 79.47 27.5092 84.2968" stroke="#ED514E" stroke-width="5" stroke-linecap="round" stroke-linejoin="round"/>
<path d="M90.4731 66.7046C89.1251 73.4181 85.9389 79.47 81.4292 84.2968" stroke="#ED514E" stroke-width="5" stroke-linecap="round" stroke-linejoin="round"/>
<path d="M36.8962 27.0853C42.0922 24.2186 48.0969 22.6014 54.4693 22.6014C60.8417 22.6014 66.8464 24.2186 72.0423 27.0853" stroke="#ED514E" stroke-width="5" stroke-linecap="round" stroke-linejoin="round"/>
</svg>
