<svg width="43" height="43" viewBox="0 0 43 43" fill="none" xmlns="http://www.w3.org/2000/svg">
<g clip-path="url(#clip0_844_19907)">
<path d="M33.3306 11.1269V7.72272C33.3306 7.624 33.2519 7.54433 33.1543 7.54433H31.2758C31.1781 7.54433 31.0994 7.624 31.0994 7.72272V8.91171L28.0607 6.62207C27.9982 6.57444 27.9126 6.5753 27.8492 6.62207L19.5321 12.9307C19.4876 12.9645 19.4619 13.0173 19.4619 13.0736V13.1732C19.4619 13.2719 19.5407 13.3516 19.6383 13.3516H21.8199V20.0577C21.8199 20.1564 21.8987 20.2361 21.9963 20.2361H25.6163C25.7139 20.2361 25.7927 20.1564 25.7927 20.0577V15.0428C25.7927 14.0547 26.5872 13.2511 27.6035 13.2511C28.6198 13.2511 29.375 14.0547 29.375 15.0428V20.0577C29.375 20.1564 29.4538 20.2361 29.5514 20.2361H33.0601C33.1577 20.2361 33.2364 20.1564 33.2364 20.0577V13.2511H35.5285C35.6038 13.2511 35.6706 13.2026 35.6955 13.1299C35.7194 13.058 35.6955 12.9775 35.6364 12.9307L33.3298 11.1243L33.3306 11.1269Z" fill="#3D302B"/>
<path d="M17.2241 24.6101C15.8927 24.6101 14.8096 25.7056 14.8096 27.0522C14.8096 28.3988 15.8927 29.4942 17.2241 29.4942C18.5554 29.4942 19.6385 28.3988 19.6385 27.0522C19.6385 25.7056 18.5554 24.6101 17.2241 24.6101ZM17.2241 28.0654C16.6718 28.0654 16.2223 27.6107 16.2223 27.0522C16.2223 26.4936 16.6718 26.039 17.2241 26.039C17.7763 26.039 18.2258 26.4936 18.2258 27.0522C18.2258 27.6107 17.7763 28.0654 17.2241 28.0654Z" fill="#3D302B"/>
<path d="M42.1434 11.7183C42.1434 8.11927 39.109 5.20786 35.5198 5.46765C34.5523 2.26354 31.5787 -0.00012207 28.2182 -0.00012207C25.2728 -0.00012207 22.6375 1.68074 21.3609 4.32716C21.1254 4.30464 20.8891 4.29339 20.6562 4.29339C16.4471 4.29339 13.0232 7.75642 13.0232 12.0136C13.0232 14.4487 14.144 16.7097 16.0481 18.1663C15.9497 18.5404 15.8992 18.9258 15.8992 19.3163C15.8992 21.7904 17.8873 23.7943 20.3488 23.7839C21.2487 26.1982 23.5536 27.8384 26.1462 27.8384C28.1214 27.8384 29.9777 26.8737 31.1378 25.282C31.9418 25.6527 32.8185 25.8467 33.7081 25.8467C37.1243 25.8467 39.9036 23.0357 39.9036 19.5805C39.9036 18.6729 39.7101 17.781 39.3385 16.9635C41.086 15.8135 42.1451 13.8624 42.1451 11.7174L42.1434 11.7183ZM38.0773 16.0499C37.9001 16.1391 37.7682 16.2993 37.7134 16.4924C37.6586 16.6846 37.686 16.8916 37.7896 17.0622C38.2468 17.8191 38.4891 18.6902 38.4891 19.5822C38.4891 22.2494 36.3435 24.4195 33.7064 24.4195C32.8434 24.4195 31.9966 24.184 31.2585 23.738C31.0958 23.6402 30.9023 23.6116 30.7191 23.6601C30.5359 23.7077 30.3801 23.8281 30.2859 23.9935C29.4323 25.4855 27.8449 26.4113 26.1444 26.4113C23.9894 26.4113 22.0912 24.9434 21.5287 22.8417C21.4439 22.5265 21.1622 22.3135 20.848 22.3135C20.8146 22.3135 20.7804 22.3161 20.7461 22.3213C20.5817 22.3455 20.4447 22.3568 20.3154 22.3568C18.6587 22.3568 17.311 20.9937 17.311 19.3181C17.311 18.9206 17.3872 18.5318 17.5379 18.1629C17.6672 17.845 17.5551 17.4787 17.2699 17.2917C15.495 16.1243 14.4351 14.1517 14.4351 12.0153C14.4351 8.54619 17.2254 5.72398 20.6554 5.72398C20.9927 5.72398 21.336 5.75255 21.6768 5.80971C21.9996 5.8634 22.3232 5.68241 22.4474 5.37239C23.402 2.97797 25.6667 1.43047 28.2182 1.43047C31.1352 1.43047 33.6936 3.5218 34.3015 6.4029C34.3802 6.77874 34.739 7.02381 35.1149 6.95713C35.3931 6.90777 35.6739 6.88265 35.9488 6.88265C38.5859 6.88265 40.7315 9.05279 40.7315 11.72C40.7315 13.5663 39.7144 15.2263 38.0782 16.0516L38.0773 16.0499Z" fill="#3D302B"/>
<path d="M12.1625 26.0801C14.0834 24.1373 14.0834 20.9872 12.1625 19.0444C10.2416 17.1015 7.12713 17.1015 5.20619 19.0444C3.28525 20.9872 3.28525 24.1373 5.20619 26.0801C7.12712 28.023 10.2416 28.023 12.1625 26.0801Z" fill="#ED514E"/>
<path d="M9.86203 28.967H7.50491C3.43882 28.967 0.143311 32.301 0.143311 36.4126V42.8564H3.05781V36.3875C3.05781 35.9935 3.37375 35.6731 3.76418 35.6731C4.1546 35.6731 4.47054 35.9935 4.47054 36.3875V42.8564H12.8964V36.3875C12.8964 35.9935 13.2123 35.6731 13.6028 35.6731C13.9932 35.6731 14.3091 35.9935 14.3091 36.3875V42.8564H17.2236V36.4126C17.2236 32.3001 13.9273 28.967 9.86203 28.967Z" fill="#ED514E"/>
</g>
<defs>
<clipPath id="clip0_844_19907">
<rect width="42" height="42.8571" fill="white" transform="translate(0.143555)"/>
</clipPath>
</defs>
</svg>
