<svg width="78" height="121" viewBox="0 0 78 121" fill="none" xmlns="http://www.w3.org/2000/svg">
<g clip-path="url(#clip0_844_11683)">
<path d="M75.4327 17.08H3.22547C1.95579 17.08 0.926514 18.1097 0.926514 19.38V118.12C0.926514 119.39 1.95579 120.42 3.22547 120.42H75.4327C76.7024 120.42 77.7317 119.39 77.7317 118.12V19.38C77.7317 18.1097 76.7024 17.08 75.4327 17.08Z" fill="#243239"/>
<path d="M69.5254 20.85H9.13281V113.8H69.5254V20.85Z" fill="#EDF3F3"/>
<path d="M56.3214 42.6H32.3922V43.98H56.3214V42.6Z" fill="#CDD1D1"/>
<path d="M56.3214 38.6H32.3922V39.98H56.3214V38.6Z" fill="#CDD1D1"/>
<path d="M25.8454 38.33C26.1552 38.33 26.4051 38.58 26.4051 38.89V43.67C26.4051 43.98 26.1452 44.24 25.8454 44.24H21.0575C20.7477 44.24 20.4978 43.98 20.4978 43.67V38.89C20.4978 38.58 20.7477 38.33 21.0575 38.33H25.8454ZM25.8454 36.96H21.0575C19.988 36.96 19.1284 37.83 19.1284 38.89V43.67C19.1284 44.74 19.998 45.61 21.0575 45.61H25.8454C26.9149 45.61 27.7745 44.74 27.7745 43.67V38.89C27.7745 37.82 26.9049 36.96 25.8454 36.96Z" fill="#F77C5B"/>
<path d="M22.6966 44.29C22.4567 44.29 22.2268 44.19 22.0569 44.02L19.0183 40.98C18.6585 40.62 18.6585 40.05 19.0183 39.69C19.3781 39.33 19.9479 39.33 20.3077 39.69L22.7066 42.09L27.5644 37.23C27.9243 36.87 28.494 36.87 28.8538 37.23C29.2137 37.59 29.2137 38.16 28.8538 38.52L23.3563 44.02C23.1864 44.19 22.9565 44.29 22.7166 44.29H22.6966Z" fill="#243239"/>
<path d="M56.3214 57.17H32.3922V58.55H56.3214V57.17Z" fill="#CDD1D1"/>
<path d="M56.3214 53.17H32.3922V54.55H56.3214V53.17Z" fill="#CDD1D1"/>
<path d="M25.8454 52.9C26.1552 52.9 26.4051 53.15 26.4051 53.46V58.24C26.4051 58.55 26.1452 58.81 25.8454 58.81H21.0575C20.7477 58.81 20.4978 58.55 20.4978 58.24V53.46C20.4978 53.15 20.7477 52.9 21.0575 52.9H25.8454ZM25.8454 51.53H21.0575C19.988 51.53 19.1284 52.4 19.1284 53.46V58.24C19.1284 59.31 19.998 60.18 21.0575 60.18H25.8454C26.9149 60.18 27.7745 59.31 27.7745 58.24V53.46C27.7745 52.39 26.9049 51.53 25.8454 51.53Z" fill="#F77C5B"/>
<path d="M22.6966 58.85C22.4567 58.85 22.2268 58.75 22.0569 58.58L19.0183 55.54C18.6585 55.18 18.6585 54.61 19.0183 54.25C19.3781 53.89 19.9479 53.89 20.3077 54.25L22.7066 56.65L27.5644 51.79C27.9243 51.43 28.494 51.43 28.8538 51.79C29.2137 52.15 29.2137 52.72 28.8538 53.08L23.3563 58.58C23.1864 58.75 22.9565 58.85 22.7166 58.85H22.6966Z" fill="#243239"/>
<path d="M56.3214 71.73H32.3922V73.11H56.3214V71.73Z" fill="#CDD1D1"/>
<path d="M56.3214 67.73H32.3922V69.11H56.3214V67.73Z" fill="#CDD1D1"/>
<path d="M25.8454 67.46C26.1552 67.46 26.4051 67.71 26.4051 68.02V72.8C26.4051 73.11 26.1452 73.37 25.8454 73.37H21.0575C20.7477 73.37 20.4978 73.11 20.4978 72.8V68.02C20.4978 67.71 20.7477 67.46 21.0575 67.46H25.8454ZM25.8454 66.09H21.0575C19.988 66.09 19.1284 66.96 19.1284 68.02V72.8C19.1284 73.87 19.998 74.74 21.0575 74.74H25.8454C26.9149 74.74 27.7745 73.87 27.7745 72.8V68.02C27.7745 66.95 26.9049 66.09 25.8454 66.09Z" fill="#F77C5B"/>
<path d="M22.6966 73.42C22.4567 73.42 22.2268 73.32 22.0569 73.15L19.0183 70.11C18.6585 69.75 18.6585 69.18 19.0183 68.82C19.3781 68.46 19.9479 68.46 20.3077 68.82L22.7066 71.22L27.5644 66.36C27.9243 66 28.494 66 28.8538 66.36C29.2137 66.72 29.2137 67.29 28.8538 67.65L23.3563 73.15C23.1864 73.32 22.9565 73.42 22.7166 73.42H22.6966Z" fill="#243239"/>
<path d="M56.3214 86.3H32.3922V87.68H56.3214V86.3Z" fill="#CDD1D1"/>
<path d="M56.3214 82.3H32.3922V83.68H56.3214V82.3Z" fill="#CDD1D1"/>
<path d="M25.8454 82.03C26.1552 82.03 26.4051 82.28 26.4051 82.59V87.37C26.4051 87.68 26.1452 87.94 25.8454 87.94H21.0575C20.7477 87.94 20.4978 87.68 20.4978 87.37V82.59C20.4978 82.28 20.7477 82.03 21.0575 82.03H25.8454ZM25.8454 80.66H21.0575C19.988 80.66 19.1284 81.53 19.1284 82.59V87.37C19.1284 88.44 19.998 89.31 21.0575 89.31H25.8454C26.9149 89.31 27.7745 88.44 27.7745 87.37V82.59C27.7745 81.52 26.9049 80.66 25.8454 80.66Z" fill="#F77C5B"/>
<path d="M22.6966 87.99C22.4567 87.99 22.2268 87.89 22.0569 87.72L19.0183 84.68C18.6585 84.32 18.6585 83.75 19.0183 83.39C19.3781 83.03 19.9479 83.03 20.3077 83.39L22.7066 85.79L27.5644 80.93C27.9243 80.57 28.494 80.57 28.8538 80.93C29.2137 81.29 29.2137 81.86 28.8538 82.22L23.3563 87.72C23.1864 87.89 22.9565 87.99 22.7166 87.99H22.6966Z" fill="#243239"/>
<path d="M56.3214 100.87H32.3922V102.25H56.3214V100.87Z" fill="#CDD1D1"/>
<path d="M56.3214 96.87H32.3922V98.25H56.3214V96.87Z" fill="#CDD1D1"/>
<path d="M25.8454 96.6C26.1552 96.6 26.4051 96.85 26.4051 97.16V101.94C26.4051 102.25 26.1452 102.51 25.8454 102.51H21.0575C20.7477 102.51 20.4978 102.25 20.4978 101.94V97.16C20.4978 96.85 20.7477 96.6 21.0575 96.6H25.8454ZM25.8454 95.23H21.0575C19.988 95.23 19.1284 96.1 19.1284 97.16V101.94C19.1284 103.01 19.998 103.88 21.0575 103.88H25.8454C26.9149 103.88 27.7745 103.01 27.7745 101.94V97.16C27.7745 96.09 26.9049 95.23 25.8454 95.23Z" fill="#F77C5B"/>
<path d="M22.6966 102.55C22.4567 102.55 22.2268 102.45 22.0569 102.28L19.0183 99.24C18.6585 98.88 18.6585 98.31 19.0183 97.95C19.3781 97.59 19.9479 97.59 20.3077 97.95L22.7066 100.35L27.5644 95.49C27.9243 95.13 28.494 95.13 28.8538 95.49C29.2137 95.85 29.2137 96.42 28.8538 96.78L23.3563 102.28C23.1864 102.45 22.9565 102.55 22.7166 102.55H22.6966Z" fill="#243239"/>
<path d="M56.6413 13.33V25.14C56.6413 26.92 55.202 28.34 53.4428 28.34H25.2355C23.4763 28.34 22.037 26.91 22.037 25.14V13.33H56.6513H56.6413Z" fill="#058789"/>
<path d="M39.3292 0C34.8712 0 31.2728 3.61 31.2728 8.06V16.13H47.3755V8.06C47.3755 3.62 43.7672 0 39.3192 0L39.3292 0ZM39.3292 3.26C41.978 3.26 44.147 5.39 44.147 8.06C44.147 10.73 41.978 12.88 39.3292 12.88C36.6804 12.88 34.5214 10.73 34.5214 8.06C34.5214 5.39 36.6704 3.26 39.3292 3.26Z" fill="#058789"/>
<g opacity="0.07">
<path d="M56.6413 13.33V25.14C56.6413 26.92 55.2019 28.34 53.4427 28.34H39.3391V12.86C41.9879 12.86 44.1569 10.71 44.1569 8.04C44.1569 5.37 41.9879 3.24 39.3391 3.24V0C43.7771 0 47.3955 3.61 47.3955 8.06V13.34H56.6513L56.6413 13.33Z" fill="#231F20"/>
</g>
</g>
<defs>
<clipPath id="clip0_844_11683">
<rect width="76.8052" height="120.42" fill="white" transform="translate(0.926514)"/>
</clipPath>
</defs>
</svg>
