<svg width="55" height="111" viewBox="0 0 55 111" fill="none" xmlns="http://www.w3.org/2000/svg">
<path d="M54.6487 83.3628V114H0.0693359V83.3628C0.0693359 68.2022 12.2876 55.8927 27.3632 55.8927C34.9011 55.8927 41.7182 58.9743 46.653 63.9425C51.5962 68.9192 54.6487 75.7825 54.6487 83.3628Z" fill="#EDF3F3"/>
<path d="M35.7404 89.4237L28.6096 97.4052C27.9398 98.1564 26.7866 98.1564 26.1168 97.4052L18.9859 89.4237C18.0108 88.331 17.7056 86.7945 18.1804 85.4116L27.3632 58.906L36.5375 85.4116C37.0208 86.7945 36.7155 88.3395 35.7404 89.4237Z" fill="#F77C5B"/>
<path d="M47.9503 20.7739V32.4005C47.9503 43.8563 38.7251 53.144 27.3463 53.144C15.9675 53.144 6.75928 43.8563 6.75928 32.4005V20.7739C6.75928 20.6288 6.75928 20.4666 6.76775 20.3129C7.00517 9.07048 16.1201 0.030426 27.3463 0.030426C33.0357 0.030426 38.1825 2.36086 41.9132 6.09981C45.6355 9.85583 47.9418 15.0374 47.9418 20.7654L47.9503 20.7739Z" fill="#FDDA92"/>
<path d="M27.3632 45.3417C24.2938 45.3417 21.4279 43.6771 19.8847 40.9966C19.5201 40.3564 19.7321 39.5454 20.368 39.1698C21.004 38.8028 21.8095 39.0162 22.1825 39.6564C23.2509 41.5174 25.235 42.6698 27.3632 42.6698C29.4914 42.6698 31.4755 41.5174 32.5439 39.6564C32.9085 39.0162 33.7225 38.8028 34.3584 39.1698C34.9943 39.5369 35.2063 40.3564 34.8417 40.9966C33.2985 43.6771 30.4411 45.3417 27.3632 45.3417Z" fill="#F77C5B"/>
<path d="M47.9502 20.7739V21.3117C29.4066 22.5068 17.6463 10.5814 17.6463 10.5814C13.0337 18.3239 10.1423 19.2715 6.7677 20.3129C7.00511 9.07048 16.12 0.030426 27.3462 0.030426C33.0357 0.030426 38.1824 2.36087 41.9132 6.09981C45.6354 9.85583 47.9417 15.0374 47.9417 20.7654L47.9502 20.7739Z" fill="#243239"/>
</svg>
