<svg width="74" height="74" viewBox="0 0 74 74" fill="none" xmlns="http://www.w3.org/2000/svg">
<path d="M23.6585 19.1771H20.4664C20.9814 19.8764 21.5142 20.5161 22.0623 21.0966C22.6107 20.5161 23.1435 19.8764 23.6585 19.1771Z" fill="#058789"/>
<path d="M7.93379 38.6589C7.93379 38.6589 7.93379 44.3451 7.93379 44.3748C7.93379 45.8454 9.70621 46.7351 10.8829 45.849L20.2199 38.8437H34.3489C39.4289 38.8437 43.5635 34.7085 43.5635 29.625V9.95831C43.5635 4.8748 39.4289 0.739563 34.3489 0.739563H9.77671C4.6955 0.739563 0.562134 4.8748 0.562134 9.95831V29.625C0.562134 34.0771 3.73325 37.8018 7.93379 38.6589ZM14.6911 15.4896H20.2199V12.4166C20.2199 11.3987 21.0454 10.5729 22.0628 10.5729C23.0802 10.5729 23.9057 11.3987 23.9057 12.4166V15.4896H29.4345C30.4519 15.4896 31.2774 16.3154 31.2774 17.3333C31.2774 18.3512 30.4519 19.1771 29.4345 19.1771H28.0373C27.0678 20.8768 25.9568 22.3404 24.8024 23.5731C26.2151 24.6489 27.3909 25.3075 27.8159 25.5246C28.723 25.9891 29.0817 27.0994 28.6186 28.0057C28.1598 28.9034 27.0377 29.2665 26.1386 28.8087C25.3935 28.4275 23.8345 27.5305 22.0627 26.116C20.291 27.5305 18.7321 28.4275 17.987 28.8087C17.1071 29.2568 15.9582 28.8889 15.5069 28.0054C15.0441 27.0991 15.4028 25.989 16.3097 25.5246C16.7343 25.3074 17.91 24.6489 19.3226 23.5729C18.1684 22.3402 17.0573 20.8768 16.0882 19.1771H14.6911C13.6737 19.1771 12.8482 18.3512 12.8482 17.3333C12.8482 16.3154 13.6737 15.4896 14.6911 15.4896Z" fill="#058789"/>
<path d="M50.2185 47.4479H52.8803C52.1358 45.6606 51.5494 44.2526 51.5494 44.2526L50.2185 47.4479Z" fill="#ED514E"/>
<path d="M63.8356 27.7812H47.2494V29.625C47.2494 36.7541 41.4504 42.5312 34.349 42.5312H30.0488V56.6667C30.0488 61.7554 34.1769 65.8854 39.2634 65.8854H53.3924C53.3924 65.8854 62.7052 72.867 62.7298 72.8916C63.9338 73.8012 65.6785 72.9162 65.6785 71.4167V65.6887C69.8804 64.8528 73.0502 61.1162 73.0502 56.6667V37C73.0502 31.9112 68.9221 27.7812 63.8356 27.7812ZM58.4004 55.9104C57.4841 56.2913 56.3624 55.8075 55.9912 54.9165C55.9912 54.9165 55.2725 53.1912 54.4163 51.1354H48.6827L47.1078 54.9165C46.7167 55.8576 45.6248 56.2969 44.6986 55.9104C43.7579 55.5191 43.314 54.4388 43.7051 53.5001L49.8482 38.7489C50.4193 37.3757 52.6797 37.3757 53.2509 38.7489L59.3939 53.5001C59.785 54.4388 59.3411 55.5191 58.4004 55.9104Z" fill="#ED514E"/>
<path d="M51.5495 6.88538H58.9211C60.6152 6.88538 61.9926 8.26339 61.9926 9.95829V15.3407L60.2241 13.5714C59.5042 12.8511 58.338 12.8511 57.6181 13.5714C56.8982 14.2916 56.8982 15.4583 57.6181 16.1785L62.5327 21.0954C63.2499 21.8126 64.4219 21.8122 65.1385 21.0952L70.053 16.1785C70.7729 15.4583 70.7729 14.2916 70.053 13.5714C69.3331 12.8511 68.1669 12.8511 67.447 13.5714L65.6785 15.3407V9.95829C65.6785 6.22998 62.6477 3.19788 58.9211 3.19788H51.5495C50.532 3.19788 49.7065 4.02373 49.7065 5.04163C49.7065 6.05952 50.532 6.88538 51.5495 6.88538Z" fill="#ED514E"/>
<path d="M22.0628 67.1146H14.6911C12.997 67.1146 11.6196 65.7365 11.6196 64.0416V58.6592C11.6196 58.6592 13.3786 60.4191 13.3881 60.4285C14.0856 61.1264 15.3008 61.1222 15.9941 60.4286C16.714 59.7084 16.714 58.5416 15.9941 57.8214L11.0796 52.9047C10.3598 52.1845 9.19354 52.1845 8.47365 52.9047L3.55921 57.8214C2.83931 58.5416 2.83931 59.7084 3.55921 60.4286C4.2791 61.1488 5.44532 61.1488 6.16521 60.4286L7.93375 58.6592V64.0416C7.93375 67.7699 10.9645 70.8021 14.6911 70.8021H22.0628C23.0802 70.8021 23.9057 69.9762 23.9057 68.9583C23.9057 67.9404 23.0802 67.1146 22.0628 67.1146Z" fill="#058789"/>
</svg>
