<svg width="61" height="97" viewBox="0 0 61 97" fill="none" xmlns="http://www.w3.org/2000/svg">
<path d="M60.8694 30.5691C60.8694 46.3517 48.8076 59.3401 33.3726 60.7411C32.4519 60.8262 31.5235 60.8727 30.5796 60.8727C29.6357 60.8727 28.6995 60.8262 27.7865 60.7411C12.3669 59.3401 0.289673 46.3517 0.289673 30.5691C0.289673 13.8266 13.8602 0.25 30.5796 0.25C47.2989 0.25 60.8694 13.8266 60.8694 30.5691Z" fill="#243239"/>
<path d="M30.5793 55.5706C44.3852 55.5706 55.5771 44.3736 55.5771 30.5614C55.5771 16.7492 44.3852 5.55225 30.5793 5.55225C16.7733 5.55225 5.58142 16.7492 5.58142 30.5614C5.58142 44.3736 16.7733 55.5706 30.5793 55.5706Z" fill="#EDF3F3"/>
<path d="M33.3741 58.876H27.7881V68.6211H33.3741V58.876Z" fill="#243239"/>
<path d="M40.9234 70.5484C40.9234 71.6088 40.4902 72.5687 39.7938 73.273C39.0898 73.9619 38.1304 74.3876 37.055 74.3876H24.1035C21.9681 74.3876 20.2505 72.6693 20.2505 70.5484C20.2505 69.4725 20.6838 68.4972 21.3801 67.8083C22.0687 67.1039 23.028 66.6782 24.1035 66.6782H37.055C39.1904 66.6782 40.9234 68.4121 40.9234 70.5484Z" fill="#243239"/>
<path d="M36.3995 74.3875V91.0293C36.3995 94.2415 33.7921 96.85 30.5813 96.85C27.3705 96.85 24.7787 94.2415 24.7787 91.0293V74.3875H36.3995Z" fill="#F77C5B"/>
<g opacity="0.07">
<path d="M33.3719 60.7411V66.678H37.0546C39.19 66.678 40.9231 68.4118 40.9231 70.5482C40.9231 71.6086 40.4898 72.5684 39.7935 73.2728C39.0894 73.9617 38.13 74.3874 37.0546 74.3874H36.397V91.0292C36.397 94.2415 33.7897 96.85 30.5789 96.85V0.25C47.3137 0.25 60.8687 13.8266 60.8687 30.5691C60.8687 46.3517 48.8069 59.3401 33.3719 60.7411Z" fill="#231F20"/>
</g>
</svg>
