<svg width="177" height="178" viewBox="0 0 177 178" fill="none" xmlns="http://www.w3.org/2000/svg">
<circle cx="88.5005" cy="89.0039" r="87.5" fill="#ED514E" stroke="white" stroke-width="2"/>
<path d="M46.9443 130.506H68.5748V99.8342H46.9443V130.506ZM49.6911 102.095H65.828V128.217H49.6911V102.095Z" fill="white"/>
<path d="M77.9595 130.505H99.5898V85.8425H77.9595V130.505ZM80.6776 88.1315H96.8145V128.245H80.6776V88.1315Z" fill="white"/>
<path d="M108.946 70.364V130.506H130.576V70.364H108.946ZM127.858 128.217H111.721V72.6529H127.858V128.217Z" fill="white"/>
<path d="M121.077 51.767L120.534 59.5494L123.252 59.6925L124.053 48.0761L106.772 47.5039L106.657 49.7928L119.075 50.1934L85.8564 75.8294L72.4948 68.5048L46.0005 86.101L47.7172 87.8749L72.6379 71.3088L86.1426 78.7192L121.077 51.767Z" fill="white"/>
</svg>
