<svg width="177" height="178" viewBox="0 0 177 178" fill="none" xmlns="http://www.w3.org/2000/svg">
<circle cx="88.5002" cy="89.0039" r="87.5" fill="#3D302B" stroke="white" stroke-width="2"/>
<path d="M131.536 43.228H87.8362C82.1825 43.228 77.594 47.8165 77.594 53.4702V70.2402H45.1194C39.4657 70.2402 34.8772 74.8287 34.8772 80.4824V110.253C34.8772 115.907 39.4657 120.495 45.1194 120.495H48.0965L53.7229 133.878C53.9414 134.37 54.4057 134.725 54.9519 134.78C55.0066 134.78 55.0339 134.78 55.0885 134.78C55.5801 134.78 56.0444 134.534 56.3176 134.097L65.1122 120.468H88.8468C94.5005 120.468 99.089 115.879 99.089 110.226V93.4558H111.598L120.393 107.085C120.666 107.494 121.13 107.768 121.622 107.768C121.676 107.768 121.704 107.768 121.758 107.768C122.305 107.713 122.769 107.385 122.987 106.866L128.614 93.4831H131.591C137.245 93.4831 141.833 88.8946 141.833 83.2409V53.4702C141.779 47.8165 137.19 43.228 131.536 43.228ZM96.1119 110.226C96.1119 114.241 92.8345 117.518 88.8195 117.518H64.2655C63.7738 117.518 63.3095 117.764 63.0364 118.201L55.3343 130.137L50.418 118.42C50.1995 117.873 49.6533 117.518 49.0524 117.518H45.0921C41.0771 117.518 37.7996 114.241 37.7996 110.226V80.4551C37.7996 76.4401 41.0771 73.1626 45.0921 73.1626H77.5667V83.2136C77.5667 88.8673 82.1553 93.4558 87.809 93.4558H96.1119V110.226ZM138.829 83.2136C138.829 87.2286 135.551 90.5061 131.536 90.5061H127.576C126.975 90.5061 126.456 90.8611 126.21 91.4074L121.294 103.124L113.592 91.1889C113.319 90.7792 112.855 90.5061 112.363 90.5061H97.5868C97.5868 90.5061 97.5868 90.5061 97.5595 90.5061C97.5595 90.5061 97.5595 90.5061 97.5322 90.5061H87.7816C83.7667 90.5061 80.4892 87.2286 80.4892 83.2136V71.6877V53.4702C80.4892 49.4553 83.7667 46.1778 87.7816 46.1778H131.482C135.497 46.1778 138.774 49.4553 138.774 53.4702V83.2136H138.829Z" fill="white"/>
</svg>
