<svg width="177" height="178" viewBox="0 0 177 178" fill="none" xmlns="http://www.w3.org/2000/svg">
<circle cx="88.5005" cy="89.0039" r="87.5" fill="#ED514E" stroke="white" stroke-width="2"/>
<path d="M135.225 54.563H130.941C128.59 54.563 126.686 56.4667 126.686 58.8183V112.009C126.686 112.261 126.742 112.513 126.854 112.709L131.753 121.892C132.005 122.396 132.537 122.704 133.097 122.704C133.657 122.704 134.161 122.396 134.441 121.892L139.34 112.709C139.452 112.485 139.508 112.233 139.508 112.009V58.8183C139.48 56.4667 137.548 54.563 135.225 54.563ZM129.682 109.91V63.9414L136.457 63.9974V109.966L129.682 109.91ZM130.913 57.5865H135.197C135.869 57.5865 136.429 58.1464 136.429 58.8183V60.9739L129.654 60.9179V58.8463C129.682 58.1464 130.242 57.5865 130.913 57.5865ZM133.069 117.972L130.382 112.933L135.729 112.989L133.069 117.972Z" fill="white"/>
<path d="M122.067 77.015H109.777V74.4114C109.777 71.5279 107.453 69.2043 104.57 69.2043H77.3024C75.9867 69.2043 74.7269 68.7284 73.7751 67.8325L65.5724 60.3578C64.0607 58.958 62.073 58.2021 60.0014 58.2021H42.7003C39.8168 58.2021 37.4932 60.5258 37.4932 63.4093V117.496C37.4932 118.532 37.8011 119.512 38.361 120.38C38.361 120.38 38.361 120.38 38.389 120.408C38.389 120.436 38.417 120.436 38.417 120.436C39.3969 121.835 40.9926 122.703 42.7003 122.703H102.89C104.934 122.703 106.949 122.003 108.573 120.772L108.601 120.744C109.945 119.68 110.981 118.28 111.597 116.684L124.95 81.1863C125.314 80.2344 125.174 79.1706 124.587 78.3588C123.999 77.4909 123.075 77.015 122.067 77.015ZM42.7003 61.2256H60.0014C61.3172 61.2256 62.5769 61.7016 63.5288 62.5974L71.7314 70.0722C73.2432 71.4719 75.2308 72.2278 77.3024 72.2278H104.57C105.774 72.2278 106.753 73.2076 106.753 74.4114V77.015H60.4493C56.5859 77.015 53.0865 79.4506 51.7428 83.034L40.5167 112.877V63.4093C40.4887 62.2055 41.4685 61.2256 42.7003 61.2256ZM122.123 80.0945L108.741 115.592C108.321 116.684 107.621 117.636 106.697 118.336L106.67 118.364C105.578 119.204 104.262 119.652 102.862 119.652H42.6723C42.1684 119.652 41.7204 119.484 41.3285 119.176L54.5423 84.0698C55.4661 81.6342 57.8177 79.9825 60.4213 79.9825H122.039C122.067 79.9825 122.067 79.9825 122.095 80.0105C122.123 80.0665 122.123 80.0945 122.123 80.0945Z" fill="white"/>
</svg>
