<svg width="177" height="177" viewBox="0 0 177 177" fill="none" xmlns="http://www.w3.org/2000/svg">
<path d="M176 88.5C176 136.825 136.825 176 88.5 176C40.1751 176 1 136.825 1 88.5C1 40.1751 40.1751 1 88.5 1C136.825 1 176 40.1751 176 88.5Z" fill="#ED514E"/>
<path fill-rule="evenodd" clip-rule="evenodd" d="M88.5 175C136.273 175 175 136.273 175 88.5C175 40.7274 136.273 2 88.5 2C40.7274 2 2 40.7274 2 88.5C2 136.273 40.7274 175 88.5 175ZM88.5 177C137.377 177 177 137.377 177 88.5C177 39.6228 137.377 0 88.5 0C39.6228 0 0 39.6228 0 88.5C0 137.377 39.6228 177 88.5 177Z" fill="white"/>
<path fill-rule="evenodd" clip-rule="evenodd" d="M72.4332 105.944H87.5641V126.945H112V45.9448H47.9995V126.945H72.4332V105.944ZM75.4332 129.945H44.9995V42.9448H115V129.945H84.5641V108.944H75.4332V129.945ZM69.3039 102.945H54.173V87.9444H69.3039V102.945ZM69.3039 84.9453H54.173V69.9445H69.3039V84.9453ZM69.3039 66.9455H54.173V51.9464H69.3039V66.9455ZM87.5641 102.945H72.4349V87.9444H87.5641V102.945ZM87.5641 84.9453H72.4349V69.9445H87.5641V84.9453ZM87.5641 66.9455H72.4349V51.9464H87.5641V66.9455ZM105.826 102.945H90.6951V87.9444H105.826V102.945ZM105.826 84.9453H90.6951V69.9445H105.826V84.9453ZM105.826 66.9455H90.6951V51.9464H105.826V66.9455ZM66.3039 99.9451V90.9444H57.173V99.9451H66.3039ZM66.3039 81.9453V72.9445H57.173V81.9453H66.3039ZM66.3039 63.9455V54.9464H57.173V63.9455H66.3039ZM84.5641 99.9451V90.9444H75.4349V99.9451H84.5641ZM84.5641 81.9453V72.9445H75.4349V81.9453H84.5641ZM84.5641 63.9455V54.9464H75.4349V63.9455H84.5641ZM102.826 99.9451V90.9444H93.6951V99.9451H102.826ZM102.826 81.9453V72.9445H93.6951V81.9453H102.826ZM102.826 63.9455V54.9464H93.6951V63.9455H102.826Z" fill="white"/>
<path fill-rule="evenodd" clip-rule="evenodd" d="M108.381 111.19L108.383 111.192C110.574 113.384 113.444 114.479 116.319 114.479C119.194 114.479 122.065 113.384 124.256 111.192C126.447 109.001 127.542 106.13 127.542 103.255C127.542 100.378 126.446 97.509 124.258 95.3253L124.256 95.3229C122.065 93.1317 119.202 92.0367 116.322 92.0361C113.444 92.0417 110.573 93.1386 108.383 95.3292C106.191 97.5215 105.097 100.387 105.097 103.261C105.097 106.137 106.192 109.006 108.381 111.19ZM116.319 89.0361C119.963 89.0361 123.6 90.4246 126.377 93.2017C129.154 95.9725 130.542 99.6167 130.542 103.255C130.542 106.892 129.154 110.537 126.377 113.314C123.6 116.091 119.957 117.479 116.319 117.479C112.682 117.479 109.038 116.091 106.262 113.314C103.485 110.543 102.097 106.899 102.097 103.261C102.097 99.623 103.485 95.9851 106.262 93.208C109.038 90.4309 112.682 89.0424 116.319 89.0361ZM136.652 103.273V103.283C136.64 107.014 135.611 110.765 133.547 114.055L144.669 125.179C146.443 126.953 146.443 129.839 144.669 131.614C142.894 133.389 140.008 133.389 138.233 131.614L127.112 120.49C123.82 122.555 120.07 123.589 116.319 123.589C111.122 123.589 105.919 121.606 101.954 117.634C97.9817 113.667 95.9995 108.458 95.9995 103.267C95.9995 98.0688 97.9825 92.8655 101.955 88.8994C105.926 84.9286 111.127 82.9448 116.326 82.9448C121.525 82.9448 126.726 84.9289 130.697 88.9003C134.661 92.8649 136.652 98.0732 136.652 103.273ZM104.075 115.513C107.455 118.899 111.884 120.589 116.319 120.589C120.271 120.589 124.216 119.245 127.426 116.562L140.355 129.492C140.958 130.096 141.944 130.096 142.547 129.492C143.15 128.889 143.15 127.903 142.547 127.3L129.619 114.369C132.301 111.165 133.639 107.213 133.652 103.273C133.652 98.8376 131.956 94.4018 128.576 91.0215C125.19 87.635 120.761 85.9448 116.326 85.9448C111.89 85.9448 107.462 87.635 104.075 91.0215C100.689 94.4018 98.9995 98.8313 98.9995 103.267C98.9995 107.697 100.689 112.132 104.075 115.513Z" fill="#ED514E"/>
<path d="M106.262 93.208C103.485 95.9851 102.097 99.623 102.097 103.261C102.097 106.899 103.485 110.543 106.262 113.314C109.038 116.091 112.682 117.479 116.319 117.479C119.957 117.479 123.6 116.091 126.377 113.314C129.154 110.537 130.542 106.892 130.542 103.255C130.542 99.6167 129.154 95.9725 126.377 93.2017C123.6 90.4246 119.963 89.0361 116.319 89.0361C112.682 89.0424 109.038 90.4309 106.262 93.208ZM129.619 114.369L142.547 127.3C143.15 127.903 143.15 128.889 142.547 129.492C141.944 130.096 140.958 130.096 140.355 129.492L127.426 116.562C124.216 119.245 120.271 120.589 116.319 120.589C111.884 120.589 107.455 118.899 104.075 115.513C100.689 112.132 98.9995 107.697 98.9995 103.267C98.9995 98.8313 100.689 94.4018 104.075 91.0215C107.462 87.635 111.89 85.9448 116.326 85.9448C120.761 85.9448 125.19 87.635 128.576 91.0215C131.956 94.4018 133.652 98.8376 133.652 103.273C133.639 107.213 132.301 111.165 129.619 114.369Z" fill="white"/>
</svg>
