<svg width="177" height="178" viewBox="0 0 177 178" fill="none" xmlns="http://www.w3.org/2000/svg">
<circle cx="88.5002" cy="89.0039" r="87.5" fill="#3D302B" stroke="white" stroke-width="2"/>
<path d="M135.838 85.2922L133.272 82.7263C132.583 82.0373 131.68 81.6572 130.729 81.6572C129.755 81.6572 128.853 82.0373 128.187 82.7263L126.049 84.8646L115.595 95.3182V62.5556C115.595 62.5318 115.595 62.5318 115.595 62.5081C115.595 62.4605 115.595 62.413 115.572 62.3655C115.572 62.318 115.548 62.2705 115.548 62.223C115.548 62.1754 115.524 62.1517 115.524 62.1042C115.5 62.0567 115.5 62.0329 115.477 61.9854C115.453 61.9616 115.453 61.9379 115.429 61.8903C115.405 61.8666 115.382 61.8191 115.358 61.7953C115.334 61.7716 115.31 61.7478 115.287 61.724C115.263 61.7003 115.239 61.6528 115.215 61.629L101.554 47.968C101.531 47.9443 101.483 47.9205 101.459 47.8967C101.436 47.873 101.412 47.8492 101.388 47.8255C101.364 47.8017 101.317 47.778 101.293 47.7542C101.269 47.7304 101.246 47.7304 101.198 47.7067C101.174 47.6829 101.127 47.6829 101.103 47.6592C101.055 47.6354 101.032 47.6354 100.984 47.6354C100.937 47.6116 100.889 47.6116 100.842 47.6116C100.794 47.6116 100.723 47.5879 100.675 47.5879C100.652 47.5879 100.652 47.5879 100.628 47.5879H57.958C57.2453 47.5879 56.675 48.1581 56.675 48.8708V129.055C56.675 129.768 57.2453 130.338 57.958 130.338H114.289C115.002 130.338 115.572 129.768 115.572 129.055V110.69L133.652 92.6097L135.861 90.4002C137.239 88.9985 137.239 86.6939 135.838 85.2922ZM113.362 109.241L103.336 119.266L99.3211 115.18L115.192 99.3096L126.928 87.573L130.943 91.6594L113.362 109.241ZM97.9194 117.413L101.103 120.668L96.5176 122.07L97.9194 117.413ZM101.863 51.9594L111.176 61.2726H101.863V51.9594ZM112.982 127.748H59.241V50.13H99.3211V62.5318C99.3211 63.2446 99.8913 63.8148 100.604 63.8148H113.006V97.8603L96.2325 114.634C96.09 114.776 95.9712 114.966 95.9237 115.156L93.3578 123.59C93.2152 124.042 93.334 124.541 93.6666 124.873C93.9042 125.111 94.2368 125.254 94.5694 125.254C94.6882 125.254 94.8308 125.23 94.9496 125.206L103.384 122.64C103.574 122.569 103.764 122.474 103.906 122.331L112.982 113.256V127.748ZM134.032 88.5946L132.749 89.8775L128.734 85.7911L129.993 84.5319C130.397 84.1281 131.086 84.1281 131.49 84.5319L134.056 87.0978C134.436 87.5017 134.436 88.1907 134.032 88.5946Z" fill="white"/>
<path d="M66.5351 64.0285H93.1206C93.8334 64.0285 94.4036 63.4583 94.4036 62.7456C94.4036 62.0328 93.8334 61.4626 93.1206 61.4626H66.5351C65.8224 61.4626 65.2522 62.0328 65.2522 62.7456C65.2522 63.4583 65.8224 64.0285 66.5351 64.0285Z" fill="white"/>
<path d="M66.5351 74.1972H106.425C107.138 74.1972 107.708 73.627 107.708 72.9143C107.708 72.2015 107.138 71.6313 106.425 71.6313H66.5351C65.8224 71.6313 65.2522 72.2015 65.2522 72.9143C65.2522 73.627 65.8224 74.1972 66.5351 74.1972Z" fill="white"/>
<path d="M66.5351 84.3655H106.425C107.138 84.3655 107.708 83.7953 107.708 83.0825C107.708 82.3698 107.138 81.7996 106.425 81.7996H66.5351C65.8224 81.7996 65.2522 82.3698 65.2522 83.0825C65.2522 83.7953 65.8224 84.3655 66.5351 84.3655Z" fill="white"/>
<path d="M66.5351 94.5341H106.425C107.138 94.5341 107.708 93.964 107.708 93.2512C107.708 92.5385 107.138 91.9683 106.425 91.9683H66.5351C65.8224 91.9683 65.2522 92.5385 65.2522 93.2512C65.2522 93.964 65.8224 94.5341 66.5351 94.5341Z" fill="white"/>
<path d="M100.272 103.42C100.272 102.707 99.7016 102.137 98.9889 102.137H66.5351C65.8224 102.137 65.2522 102.707 65.2522 103.42C65.2522 104.132 65.8224 104.703 66.5351 104.703H98.9889C99.7016 104.703 100.272 104.132 100.272 103.42Z" fill="white"/>
</svg>
